<?xml version="1.0" encoding="utf-8"?>
<!-- Generator: Adobe Illustrator 26.0.0, SVG Export Plug-In . SVG Version: 6.00 Build 0)  -->
<svg version="1.1" id="Layer_1" xmlns="http://www.w3.org/2000/svg" xmlns:xlink="http://www.w3.org/1999/xlink" x="0px" y="0px"
	 viewBox="0 0 800 800" style="enable-background:new 0 0 800 800;" xml:space="preserve">
<style type="text/css">
	.st0{opacity:0.2;}
	.st1{opacity:0.2;fill:#FF0B3A;enable-background:new    ;}
	.st2{clip-path:url(#SVGID_00000151510234227277161750000004851170130443054478_);fill:#FF0B3A;}
	
		.st3{opacity:0.2;clip-path:url(#SVGID_00000139277528869424596090000010857826080937016750_);fill:#FF0B3A;enable-background:new    ;}
	.st4{fill:#ABC993;}
	.st5{fill:#C17F0A;}
	.st6{fill:#FFFFFF;}
	.st7{fill:#FFAD08;}
	.st8{opacity:0.4;fill:#FFFFFF;enable-background:new    ;}
	.st9{opacity:0.4;}
	.st10{fill:#D0D2D3;}
	.st11{fill:#BC7D0C;}
	.st12{fill:#E51043;}
	.st13{fill:#E6E7E8;}
	.st14{fill:#FF0B3A;}
	.st15{fill:#A30D38;}
	.st16{fill:#FFDCE4;}
	.st17{fill:#C993A8;}
	.st18{fill:#E9EDF7;}
	.st19{fill:none;stroke:#FFFFFF;stroke-width:3;stroke-miterlimit:10;}
	.st20{fill:#373266;}
	.st21{fill:url(#SVGID_00000095303906859471367240000004953630948258575755_);}
	.st22{fill:#1A1449;}
	.st23{fill:#F39200;}
	.st24{fill:url(#SVGID_00000022522822261054700640000009700601910239252124_);}
	.st25{fill:url(#SVGID_00000016775935176069196350000001518763797590309526_);}
	.st26{fill:#253336;}
	.st27{fill:#F6921E;}
	.st28{fill:#F16D5B;}
	.st29{fill:url(#SVGID_00000181774174810704434230000015832799543595650228_);}
	.st30{fill:#65583F;}
	.st31{fill:#F2C1A8;}
	.st32{opacity:0.3;fill:url(#SVGID_00000092445329343161495680000013233743410257778079_);enable-background:new    ;}
	.st33{fill:#E5133A;}
	.st34{opacity:0.3;fill:url(#SVGID_00000093887445979727450780000007015899640414309776_);enable-background:new    ;}
	.st35{fill:#FBBA33;}
	.st36{opacity:0.3;fill:url(#SVGID_00000042725214222291020640000003998582203239787684_);enable-background:new    ;}
	.st37{opacity:0.3;fill:url(#SVGID_00000000918592650719585380000012181275592587528625_);enable-background:new    ;}
	.st38{fill:#FF5F85;}
	.st39{fill:url(#SVGID_00000094585291520471274730000018379470778270483101_);}
	.st40{fill:url(#SVGID_00000022546690430353062150000001925751816549594022_);}
	.st41{fill:url(#SVGID_00000070106870701413346740000018183378573323181246_);}
	.st42{fill:url(#SVGID_00000159468139845857201670000004739845638573967011_);}
	.st43{fill:url(#SVGID_00000088091388385818979460000004972623355102843019_);}
	.st44{fill:url(#SVGID_00000097483728129626633470000006396083902236296070_);}
	.st45{fill:url(#SVGID_00000130625176437017478320000006953407714804818069_);}
	.st46{fill:url(#SVGID_00000167376149147096096200000007052545844883408522_);}
	.st47{fill:url(#SVGID_00000027564147707330452690000007061490420556155790_);}
	.st48{fill:url(#SVGID_00000049916217788685987520000013451735173698841763_);}
	.st49{fill:url(#SVGID_00000159439233218674781110000012774129157078632081_);}
	.st50{fill:url(#SVGID_00000059290849208548323390000003142141939938980229_);}
	.st51{fill:url(#SVGID_00000097481056080790027590000003239094141976532613_);}
	.st52{fill:#8A5D3B;}
	.st53{fill:url(#SVGID_00000011005196090009970270000009886526623612736433_);}
	.st54{fill:url(#SVGID_00000059280781259033450760000004233122870024773545_);}
	.st55{fill:#CDEAAD;}
	.st56{fill:#BAD89E;}
	.st57{fill:none;stroke:#FFFFFF;stroke-miterlimit:10;}
	.st58{fill:#F05A28;}
	.st59{fill:url(#SVGID_00000023276264688790919910000008544145496093494165_);}
	.st60{fill:url(#SVGID_00000120553117570393995100000013122443112013207705_);}
	.st61{fill:url(#SVGID_00000163780785557485433400000008751427593848038047_);}
	.st62{fill:url(#SVGID_00000109005365729083789800000011880277122075718842_);}
	.st63{fill:url(#SVGID_00000157266971073572354400000006609814648431385219_);}
	.st64{fill:url(#SVGID_00000146495921972574512750000009410761450750657950_);}
	.st65{fill:url(#SVGID_00000049942988600243063090000009292682423005459096_);}
	.st66{fill:url(#SVGID_00000123419750827806932490000015083576646269170602_);}
	.st67{fill:#2B4DA0;}
	.st68{fill:#EA5556;}
	.st69{fill:url(#SVGID_00000180339529793990940360000002502497189814646450_);}
	.st70{fill:url(#SVGID_00000104687327431967281930000014506638296165706660_);}
	.st71{fill:url(#SVGID_00000083073790005341604630000015891561136870164124_);}
	.st72{fill:url(#SVGID_00000060032116867072998400000005632192252580183432_);}
	.st73{fill:url(#SVGID_00000025414474220383076940000001456321041803351480_);}
</style>
<g>
	<g class="st0">
		<g>
			<path id="SVGID_1_" class="st1" d="M439.73,682.86c-10.98,0.12-22.72,0.65-35.19,1.56c-38.12,15.62-75.48,34.9-114.41,50.13
				c-7.16,2.7-14.37,5.28-21.66,7.69c-9.72,3.18-19.46,6.11-29.33,8.72c-9.82,2.55-19.76,4.77-29.89,6.51
				c-9.46,1.47-18.99,2.47-28.63,2.85s-19.37,0.14-29.22-0.87c-11.09-1.44-22.05-3.69-32.81-6.9c-21.53-6.42-42.32-16.66-61.9-32.03
				c-43.39-33.74-61.47-92.8-38.74-142.67c4.9-12.47,11.76-25.41,20.94-38.76c6.22-6.55,11.81-13.25,16.82-20.06
				c66.06-70.89,33.52-166.1-0.23-244.44c-14.46-34.95-14.46-75.93,8.67-108.7c8.61-11.28,18.48-20.28,29.29-27.37
				c10.8-7.09,22.54-12.27,34.89-15.88c8.24-2.42,16.76-4.15,25.54-5.43c51.44-9.89,100.06-4.3,143.81,14.32
				c10.93,4.65,21.57,10.12,31.86,16.35c36.89,19.44,61.47,84.08,124.87,82.11c78.97-2.45,154.27-72.31,232.74-35.14
				c8.49,3.99,16.46,8.95,23.65,14.87c14.38,11.84,25.62,27.51,31.65,46.79c20.49,65.08-15.67,126.55-33.75,186.81
				c-3.61,12.05-6.63,24.71-7.23,37.36c-0.6,12.65,1.2,25.31,7.23,37.36c30.13,54.24,38.57,133.78-23.49,168.04
				c-6.78,4.39-13.83,8.51-21.11,12.19c-21.84,11.02-45.79,18.03-71.1,16.22"/>
		</g>
		<g>
			<defs>
				<path id="SVGID_00000179626389675020380710000006488823975383999407_" d="M439.73,682.86c-10.98,0.12-22.72,0.65-35.19,1.56
					c-38.12,15.62-75.48,34.9-114.41,50.13c-7.16,2.7-14.37,5.28-21.66,7.69c-9.72,3.18-19.46,6.11-29.33,8.72
					c-9.82,2.55-19.76,4.77-29.89,6.51c-9.46,1.47-18.99,2.47-28.63,2.85s-19.37,0.14-29.22-0.87c-11.09-1.44-22.05-3.69-32.81-6.9
					c-21.53-6.42-42.32-16.66-61.9-32.03c-43.39-33.74-61.47-92.8-38.74-142.67c4.9-12.47,11.76-25.41,20.94-38.76
					c6.22-6.55,11.81-13.25,16.82-20.06c66.06-70.89,33.52-166.1-0.23-244.44c-14.46-34.95-14.46-75.93,8.67-108.7
					c8.61-11.28,18.48-20.28,29.29-27.37c10.8-7.09,22.54-12.27,34.89-15.88c8.24-2.42,16.76-4.15,25.54-5.43
					c51.44-9.89,100.06-4.3,143.81,14.32c10.93,4.65,21.57,10.12,31.86,16.35c36.89,19.44,61.47,84.08,124.87,82.11
					c78.97-2.45,154.27-72.31,232.74-35.14c8.49,3.99,16.46,8.95,23.65,14.87c14.38,11.84,25.62,27.51,31.65,46.79
					c20.49,65.08-15.67,126.55-33.75,186.81c-3.61,12.05-6.63,24.71-7.23,37.36c-0.6,12.65,1.2,25.31,7.23,37.36
					c30.13,54.24,38.57,133.78-23.49,168.04c-6.78,4.39-13.83,8.51-21.11,12.19c-21.84,11.02-45.79,18.03-71.1,16.22"/>
			</defs>
			<clipPath id="SVGID_00000167369309307360872900000013729514857847665846_">
				<use xlink:href="#SVGID_00000179626389675020380710000006488823975383999407_"  style="overflow:visible;"/>
			</clipPath>
			
				<rect x="-84.58" y="-1.4" style="clip-path:url(#SVGID_00000167369309307360872900000013729514857847665846_);fill:#FF0B3A;" width="1021.46" height="752.82"/>
		</g>
		<g>
			<defs>
				<path id="SVGID_00000160906139436538189020000004076430581607100804_" d="M439.73,682.86c-10.98,0.12-22.72,0.65-35.19,1.56
					c-38.12,15.62-75.48,34.9-114.41,50.13c-7.16,2.7-14.37,5.28-21.66,7.69c-9.72,3.18-19.46,6.11-29.33,8.72
					c-9.82,2.55-19.76,4.77-29.89,6.51c-9.46,1.47-18.99,2.47-28.63,2.85s-19.37,0.14-29.22-0.87c-11.09-1.44-22.05-3.69-32.81-6.9
					c-21.53-6.42-42.32-16.66-61.9-32.03c-43.39-33.74-61.47-92.8-38.74-142.67c4.9-12.47,11.76-25.41,20.94-38.76
					c6.22-6.55,11.81-13.25,16.82-20.06c66.06-70.89,33.52-166.1-0.23-244.44c-14.46-34.95-14.46-75.93,8.67-108.7
					c8.61-11.28,18.48-20.28,29.29-27.37c10.8-7.09,22.54-12.27,34.89-15.88c8.24-2.42,16.76-4.15,25.54-5.43
					c51.44-9.89,100.06-4.3,143.81,14.32c10.93,4.65,21.57,10.12,31.86,16.35c36.89,19.44,61.47,84.08,124.87,82.11
					c78.97-2.45,154.27-72.31,232.74-35.14c8.49,3.99,16.46,8.95,23.65,14.87c14.38,11.84,25.62,27.51,31.65,46.79
					c20.49,65.08-15.67,126.55-33.75,186.81c-3.61,12.05-6.63,24.71-7.23,37.36c-0.6,12.65,1.2,25.31,7.23,37.36
					c30.13,54.24,38.57,133.78-23.49,168.04c-6.78,4.39-13.83,8.51-21.11,12.19c-21.84,11.02-45.79,18.03-71.1,16.22"/>
			</defs>
			<clipPath id="SVGID_00000147193890948146322850000000144051622631905969_">
				<use xlink:href="#SVGID_00000160906139436538189020000004076430581607100804_"  style="overflow:visible;"/>
			</clipPath>
			
				<path style="opacity:0.2;clip-path:url(#SVGID_00000147193890948146322850000000144051622631905969_);fill:#FF0B3A;enable-background:new    ;" d="
				M-79.58,577.31c0,0-19.61,38.06,78.43,29.99c98.03-8.07,265.26-29.99,265.26,2.31c0,32.29,2.31,34.6,119.94,14.99
				c117.64-19.61,478.62,4.61,448.64,32.29c-29.99,27.68-125.71,50.74-125.71,50.74L89.95,812.58"/>
		</g>
	</g>
	<path class="st4" d="M165.55,345.16c-2.44-1.34-4.74-2.6-6.91-3.79s-4.13-2.44-5.99-3.52c-1.85-1.09-3.56-2.07-5.04-3.06
		c-1.98-1.25-3.64-2.3-5.03-3.2c-1.12-5.61-11.12-47.06-61.19-51.06c0,0,2.62,54.77,60.73,51.72c1.22,1.1,2.71,2.4,4.5,3.89
		c2.74,2.33,6.2,4.99,10.21,8c2.03,1.46,4.21,3.01,6.49,4.63c2.27,1.68,4.96,2.93,7.61,4.51c2.1,1.17,4.27,2.42,6.51,3.67
		c-2.71,0.19-6.28,0.45-9.88,0.71c-1.8,0.13-3.62,0.26-5.3,0.4c-0.63,0.07-1.23,0.13-1.83,0.19c-47.53-38.98-78.94-6.66-78.94-6.66
		c54.54,34.33,73.48,15.54,78.04,8.9c0.93-0.09,1.91-0.2,2.96-0.31c1.68-0.13,3.49-0.26,5.26-0.39c3.59-0.26,7.17-0.52,9.87-0.71
		c0.34-0.06,0.66,0.03,0.96-0.09c0.3-0.1,0.59-0.21,0.86-0.29c0.28-0.11,0.48-0.18,0.72-0.26c2.69,1.37,5.46,2.77,8.3,4.23
		c1.58,0.79,3.15,1.64,4.79,2.41c1.64,0.74,3.32,1.49,5,2.26c3.38,1.51,6.84,3.06,10.34,4.64c3.61,1.47,7.14,2.93,10.86,4.33
		c1.76,0.66,3.56,1.31,5.34,1.97c-0.55-0.06-1.08-0.1-1.64-0.1c-1.01-0.04-2.03-0.08-3.07-0.11c-2.05-0.08-4.11-0.16-6.04-0.23
		c-1.93,0.03-3.74,0.06-5.29,0.08c-0.38,0.04-0.75-0.06-1.1,0.03s-0.68,0.18-1,0.25c-0.29,0.08-0.5,0.16-0.75,0.24
		c-8.66-4.11-44.43-17.9-76.79,16.13c0,0,44.15,32.38,78.34-14.56c0.1,0.02,0.2,0.04,0.3,0.07c0.35,0.07,0.71-0.04,1.09-0.02
		c1.52-0.03,3.29-0.05,5.19-0.09c1.9,0.08,3.93,0.14,5.96,0.23c1.01,0.04,2.03,0.07,3.03,0.11c1,0,1.98,0.14,2.91,0.25
		c1.9,0.22,3.66,0.44,5.16,0.61c0.37,0.02,0.73,0.18,1.08,0.11c0.21-0.02,0.41-0.05,0.62-0.07c6.88,2.48,13.81,4.97,20.55,7.86
		c3.76,1.51,7.36,3.3,10.98,5.02c1.81,0.88,3.54,1.9,5.29,2.82c1.75,0.97,3.53,1.87,5.18,2.96c0.38,0.24,0.75,0.47,1.13,0.71
		c-0.3-0.03-0.6-0.07-0.91-0.09c-1.33-0.15-2.74-0.22-4.2-0.22c-1.46-0.09-2.97,0.07-4.52,0.1c-1.52,0.15-3.09,0.29-4.63,0.56
		c-1.4,0.32-2.84,0.55-4.21,1c0.07-0.28,0.16-0.53,0.24-0.81c0,0-46.04-12.06-65.73,33.47c0,0,49.51,18.62,64.75-30.21
		c0.34-0.1,0.66-0.21,0.99-0.31c1.38-0.51,2.87-0.69,4.32-1.03c1.47-0.26,2.96-0.39,4.42-0.54c1.47-0.03,2.92-0.18,4.32-0.09
		c1.41,0.01,2.76,0.08,4.05,0.22c1.29,0.09,2.49,0.29,3.61,0.44c0.57,0.05,1.08,0.26,1.6,0.26c0.08,0,0.15,0.01,0.23,0.01
		c1.49,0.97,2.98,1.94,4.38,3.01c1.57,1.13,3.15,2.24,4.7,3.36c1.52,1.19,2.98,2.42,4.44,3.6c1.48,1.19,2.92,2.37,4.37,3.54
		c1.38,1.25,2.74,2.49,4.09,3.72c2.68,2.47,5.37,4.82,7.75,7.35c2.42,2.49,4.79,4.9,7.09,7.24c0.51,0.58,1.02,1.15,1.52,1.72
		c-0.7-0.25-1.41-0.48-2.13-0.67c-3.2-0.91-6.49-1.18-8.98-1.13c-0.3,0.03-0.6-0.08-0.88,0.02c-0.29,0.09-0.54,0.19-0.79,0.27
		c-0.33,0.13-0.58,0.24-0.84,0.35c-4.43-2.37-37.66-18.59-63.34,13.1c0,0,38.83,28.47,63.35-12.03c0.29,0.07,0.58,0.14,0.93,0.23
		c0.24,0.05,0.5,0.13,0.77,0.2c0.26,0.06,0.54-0.05,0.83-0.02c2.3-0.04,5.42,0.22,8.38,1.06c1.49,0.39,2.92,0.94,4.22,1.55
		c0.66,0.27,1.26,0.63,1.83,0.95c0.09,0.05,0.16,0.1,0.24,0.15c0.4,0.44,0.8,0.88,1.19,1.32c1,1.14,1.99,2.25,2.96,3.35
		c0.94,1.1,1.8,2.23,2.77,3.23c1.89,2.04,3.69,3.97,5.37,5.78c3.43,3.59,6.22,6.9,8.54,9.61c4.67,5.41,7.41,8.46,7.41,8.46
		s-2.2-3.44-6.14-9.42c-1.99-2.99-4.35-6.65-7.33-10.66c-1-1.4-2.06-2.88-3.15-4.41c0.02-0.17,0.04-0.31,0.06-0.5
		c0.03-0.26,0.07-0.55,0.1-0.85c0.05-0.29-0.11-0.59-0.12-0.91c-0.08-0.62-0.27-1.28-0.24-2.01c-0.01-0.72-0.02-1.49-0.04-2.28
		c-0.01-0.8-0.07-1.61-0.04-2.45c0.1-0.81,0.19-1.66,0.28-2.49c0.1-0.83,0.12-1.68,0.36-2.48c0.17-0.81,0.36-1.62,0.52-2.36
		c0.13-0.8,0.45-1.49,0.65-2.19c0.24-0.68,0.4-1.35,0.67-1.91c0.11-0.31,0.32-0.55,0.36-0.84c0.01-0.15,0.03-0.29,0.05-0.44
		c6.43-5.78,34.01-33.98,14.27-77.54c0,0-46.1,28.46-16.38,77.33c-0.09,0.21-0.16,0.46-0.28,0.68c-0.28,0.61-0.46,1.31-0.72,2.03
		c-0.22,0.74-0.54,1.49-0.69,2.31c-0.18,0.81-0.37,1.66-0.56,2.52c-0.24,0.84-0.27,1.73-0.39,2.62c-0.1,0.89-0.18,1.77-0.27,2.64
		c-0.05,0.87,0.01,1.73,0.01,2.57c0.02,0.83,0.03,1.64,0.05,2.41c-0.01,0.37,0.03,0.72,0.09,1.06c-1.49-1.92-3.28-3.72-4.99-5.71
		c-2.05-2.3-4.18-4.69-6.38-7.18c-2.34-2.37-4.74-4.82-7.21-7.34c-2.42-2.58-5.16-4.98-7.9-7.5c-1.37-1.24-2.76-2.51-4.16-3.78
		c-0.75-0.62-1.52-1.25-2.29-1.86c0.03-0.12,0.04-0.23,0.07-0.35c0.04-0.22-0.11-0.41-0.12-0.63c-0.36-1.73-0.84-4.03-1.33-6.31
		c-0.48-2.3-0.97-4.6-1.34-6.32c-0.05-0.15-0.04-0.3-0.08-0.43c4.52-9.75,17.03-44.42-15.89-76.19c0,0-32.82,44.07,14.22,78.62
		c0.31,1.45,0.66,3.1,1,4.75c0.35,1.71,0.71,3.41,1.02,4.89c-1.41-1.15-2.81-2.33-4.29-3.47c-1.6-1.14-3.21-2.3-4.83-3.45
		c-3.18-2.41-6.66-4.46-10.11-6.64c-1.7-1.11-3.52-2.03-5.31-3.03c-1.81-0.95-3.58-2.01-5.44-2.9c-2.77-1.31-5.55-2.63-8.35-3.87
		c-0.25-0.22-0.49-0.44-0.78-0.65c-1.47-1.23-3.29-2.52-5.06-4.18c-1.79-1.62-3.73-3.31-5.57-5.13c-3.74-3.54-7.34-7.25-10.03-10.04
		c-0.36-0.33-0.6-0.73-0.96-1c-0.2-0.15-0.39-0.29-0.58-0.42c0.7-5.9,4.24-50.07-45.03-61.82c0,0-1.67,63.3,43.3,62.51
		c0.03,0.04,0.05,0.08,0.08,0.12c0.22,0.35,0.45,0.7,0.69,1.08c0.26,0.37,0.65,0.63,0.97,1.01c2.7,2.82,6.31,6.54,10.09,10.11
		c1.85,1.83,3.82,3.54,5.64,5.18c0.13,0.11,0.27,0.22,0.4,0.33c-6.3-2.55-12.65-4.81-18.89-7.07c-3.78-1.34-7.49-2.74-11.13-4.09
		c-3.64-1.36-7.31-2.89-10.78-4.29c-3.46-1.55-6.87-3.09-10.21-4.59c-1.67-0.75-3.32-1.49-4.95-2.22c-1.61-0.76-3.16-1.6-4.72-2.38
		c-2.78-1.42-5.47-2.8-8.11-4.15c-0.62-0.57-1.27-1.12-1.84-1.79c-0.75-0.79-1.53-1.6-2.21-2.49c-0.72-0.85-1.39-1.75-2.01-2.67
		c-0.65-0.87-1.17-1.83-1.74-2.71c-1.04-1.82-1.93-3.58-2.56-5.13c-0.19-0.37-0.25-0.77-0.46-1.1c-0.21-0.33-0.41-0.66-0.6-0.94
		c-0.02-0.02-0.02-0.04-0.04-0.06c2.43-8.53,7.91-37.4-24.24-49.79c0,0-13.64,37.6,23.08,52.04c0.11,0.21,0.22,0.44,0.3,0.67
		c0.67,1.63,1.6,3.48,2.69,5.38c0.6,0.93,1.14,1.92,1.83,2.85c0.58,0.85,1.2,1.66,1.86,2.46c-1.09-0.62-2.16-1.25-3.23-1.84
		C170.39,348.12,167.96,346.53,165.55,345.16z"/>
	<g>
		<path class="st5" d="M193.9,233.02c0,10.25-8.31,18.55-18.55,18.55c-10.25,0-18.55-8.31-18.55-18.55s8.31-18.55,18.55-18.55
			S193.9,222.78,193.9,233.02z"/>
		<path class="st5" d="M201.9,241.49c0,0.81-0.66,1.46-1.47,1.46h-50.16c-0.81,0-1.46-0.66-1.46-1.46v-44.3
			c0-0.81,0.65-1.46,1.46-1.46h50.16c0.81,0,1.47,0.66,1.47,1.46V241.49z"/>
		<path class="st6" d="M195.85,217.44c0,0.82-0.66,1.48-1.48,1.48h-38.42c-0.81,0-1.47-0.66-1.47-1.48l0,0
			c0-0.81,0.66-1.47,1.47-1.47h38.42C195.19,215.97,195.85,216.63,195.85,217.44L195.85,217.44z"/>
		<path class="st6" d="M195.85,224.76c0,0.82-0.66,1.48-1.48,1.48h-38.42c-0.81,0-1.47-0.66-1.47-1.48l0,0
			c0-0.81,0.66-1.47,1.47-1.47h38.42C195.19,223.29,195.85,223.95,195.85,224.76L195.85,224.76z"/>
		<path class="st6" d="M195.85,232.09c0,0.81-0.66,1.48-1.48,1.48h-38.42c-0.81,0-1.47-0.66-1.47-1.48l0,0
			c0-0.81,0.66-1.47,1.47-1.47h38.42C195.19,230.61,195.85,231.27,195.85,232.09L195.85,232.09z"/>
		<path class="st7" d="M250.04,114.2c0-41.25-33.44-74.69-74.69-74.69s-74.69,33.44-74.69,74.69c0,28.34,15.79,53,39.05,65.66v10.01
			c0,11.32,9.18,20.5,20.5,20.5h30.27c11.32,0,20.5-9.18,20.5-20.5v-10.01C234.25,167.2,250.04,142.54,250.04,114.2z"/>
		<path class="st8" d="M122.81,157.14c0,0-38.45-66.39,22.27-104.47C145.08,52.67,100.54,106.77,122.81,157.14z"/>
		<path class="st6" d="M203,124.53c-3.33-3.72-6.45-3.58-8.47-2.8c-5.31,2.03-9.13,10.78-10.57,17.54
			c-0.98-0.24-1.98-0.55-2.99-0.96l-3.79-2.2c2.42-1.96,4.01-6.16,4.01-11.27c0-7.1-3.09-12.46-7.18-12.46
			c-4.1,0-7.18,5.36-7.18,12.46c0,5.27,1.7,9.57,4.24,11.44l-4.24,1.99c-1.03,0.42-2.05,0.74-3.06,0.98
			c-1.44-6.76-5.25-15.51-10.57-17.54c-2.02-0.77-5.13-0.92-8.47,2.8c-2.84,3.17-2.9,7.58-0.14,11.5c3.06,4.35,9.26,7.49,16.55,6.87
			c0.05,0.54,0.08,1.04,0.08,1.49v65.99h3.17v-65.99c0-0.6-0.04-1.27-0.12-1.98c1.24-0.28,2.5-0.68,3.77-1.2
			c0.03-0.01,0.05-0.02,0.08-0.03l6.32-2.97l5.02,2.91c0.06,0.04,0.13,0.07,0.2,0.1c1.28,0.52,2.54,0.91,3.77,1.2
			c-0.08,0.72-0.12,1.38-0.12,1.98v65.99h3.17v-65.99c0-0.45,0.03-0.95,0.09-1.49c7.29,0.62,13.49-2.51,16.55-6.87
			C205.9,132.11,205.84,127.7,203,124.53z M147.19,134.21c-1.89-2.69-1.92-5.52-0.09-7.56c1.6-1.79,2.9-2.2,3.8-2.2
			c0.55,0,0.95,0.15,1.17,0.24c3.87,1.48,7.22,9.14,8.55,15.08C154.65,140.2,149.65,137.7,147.19,134.21z M174.01,134.14
			c-1.89,0-4.01-3.97-4.01-9.29s2.12-9.29,4.01-9.29s4.01,3.98,4.01,9.29C178.03,130.17,175.91,134.14,174.01,134.14z
			 M200.55,134.21c-2.45,3.49-7.45,5.99-13.43,5.56c1.33-5.94,4.68-13.6,8.55-15.08c0.59-0.23,2.4-0.92,4.98,1.96
			C202.48,128.69,202.44,131.52,200.55,134.21z"/>
		<g class="st9">
			<path class="st10" d="M130.92,168.87c-6.72-3.65-12.81-8.32-18.08-13.77c4.85,7.4,10.99,13.88,18.08,19.14V168.87z"/>
			<path class="st11" d="M229.05,62.28c7.72,11.76,12.21,25.82,12.21,40.93c0,28.35-15.79,53-39.06,65.66v10.01
				c0,11.32-9.18,20.5-20.5,20.5h-30.27c-3.9,0-7.54-1.09-10.64-2.98c2.73,8.11,10.4,13.96,19.43,13.96h30.27
				c11.32,0,20.5-9.18,20.5-20.5v-10.01c23.26-12.66,39.05-37.31,39.05-65.66C250.04,94.02,242.04,75.72,229.05,62.28z"/>
		</g>
	</g>
	<g>
		<g>
			<path class="st12" d="M633.84,554.83h-73.83v-75.76h73.83c4.85,0,8.77-3.93,8.77-8.77s-3.92-8.77-8.77-8.77h-73.83h-12.63h-42.79
				h-6.53H179.54c-30.61,0-55.42,24.81-55.42,55.42c0,30.6,24.81,55.42,55.42,55.42h318.52h6.53h42.79h12.63h73.83
				c4.85,0,8.77-3.93,8.77-8.77C642.6,558.75,638.68,554.83,633.84,554.83z"/>
			<path class="st6" d="M621.21,474.55c-0.99-0.07-1.97-0.15-2.98-0.15H292.8c-23.49,0-42.54,19.05-42.54,42.55
				c0,23.49,19.05,42.54,42.54,42.54h325.42c1.01,0,1.99-0.08,2.98-0.15v-84.79H621.21z"/>
			<g>
				<rect x="306.49" y="534.54" class="st13" width="282.68" height="5.16"/>
				<rect x="309.63" y="493.73" class="st13" width="282.68" height="5.16"/>
				<rect x="340.12" y="515.36" class="st13" width="138.74" height="4.32"/>
				<polygon class="st14" points="521.79,540.17 507.64,522.13 492.45,540.17 492.45,493.73 521.79,493.73 				"/>
			</g>
		</g>
		<path class="st15" d="M202.82,683.75h-6.53H153.5h-12.62H67.04c-4.85,0-8.77-3.93-8.77-8.77s3.92-8.77,8.77-8.77h73.83v-75.76
			H67.04c-4.85,0-8.77-3.93-8.77-8.77s3.92-8.77,8.77-8.77h73.83h12.62h42.79h6.53h318.52c30.61,0,55.42,24.81,55.42,55.42
			s-24.81,55.42-55.42,55.42"/>
		<path class="st6" d="M79.66,585.94c0.99-0.07,1.98-0.15,2.99-0.15h325.42c23.5,0,42.54,19.04,42.54,42.54
			s-19.05,42.54-42.54,42.54H82.65c-1.01,0-1.99-0.08-2.99-0.15V585.94z"/>
		<rect x="111.71" y="645.92" class="st13" width="282.68" height="5.16"/>
		<rect x="108.57" y="605.11" class="st13" width="282.68" height="5.17"/>
		<rect x="222.02" y="626.75" class="st13" width="138.74" height="4.32"/>
		<polygon class="st14" points="306.29,651.55 320.45,633.51 335.63,651.55 335.63,605.11 306.29,605.11 		"/>
		<g>
			<path class="st14" d="M638.12,457.75l-72.21-182.16c0,0-13.43-26.46-70.94-21.06c-0.62,0.06-1.27,0.14-1.94,0.2
				c-15.6,0.42-54.53,1.4-93.97,1.75c-39.44-0.34-78.37-1.32-93.97-1.75c-0.67-0.07-1.32-0.13-1.94-0.2
				c-41.89-4.65-69.81,32.58-69.81,32.58l-80.67,170.65l145.29,0.65v0.9l101.1-0.45L638.12,457.75z"/>
			<polygon class="st16" points="584.14,455.32 455.01,455.32 493.47,284.97 555.75,293.22 			"/>
			<g>
				<path class="st17" d="M544.94,441.34c-0.47,0-0.91-0.31-1.05-0.78l-36.03-120.29c-0.17-0.58,0.16-1.19,0.74-1.37
					c0.58-0.17,1.19,0.16,1.37,0.74l36.02,120.29c0.17,0.58-0.16,1.19-0.74,1.36C545.15,441.32,545.05,441.34,544.94,441.34z"/>
			</g>
			<g>
				<path class="st17" d="M524.79,440.73c-0.47,0-0.91-0.31-1.05-0.78l-36.03-120.29c-0.17-0.58,0.16-1.19,0.74-1.37
					c0.58-0.17,1.19,0.16,1.37,0.74l36.02,120.29c0.17,0.58-0.16,1.19-0.74,1.37C525,440.71,524.9,440.73,524.79,440.73z"/>
			</g>
			<g>
				<path class="st17" d="M504.64,441.03c-0.47,0-0.91-0.31-1.05-0.78l-26.33-87.92c-0.17-0.58,0.16-1.19,0.74-1.37
					c0.58-0.17,1.19,0.16,1.37,0.74l26.33,87.92c0.17,0.58-0.16,1.19-0.74,1.37C504.85,441.02,504.75,441.03,504.64,441.03z"/>
			</g>
			<g>
				<path class="st17" d="M484.49,442.86c-0.47,0-0.91-0.31-1.05-0.78l-22.31-74.5c-0.17-0.58,0.16-1.19,0.74-1.37
					c0.58-0.17,1.19,0.16,1.37,0.74l22.31,74.5c0.17,0.58-0.16,1.19-0.74,1.37C484.7,442.85,484.6,442.86,484.49,442.86z"/>
			</g>
			<path class="st6" d="M621.06,458.15l-71.32-179.92c0,0-13.56-9.97-29.63-9.97c-16.08,0-30.73,8.96-30.73,8.96L420.99,449.4
				l-264.23-0.15l-4.1,8.5h313.52l56.17-156.11l50.6,157.13L621.06,458.15z"/>
			<polygon class="st18" points="449.08,446.35 499.76,308.35 455.18,446.35 			"/>
			<polygon class="st18" points="598.06,434.14 549.83,318.12 591.96,434.75 			"/>
			<polygon class="st19" points="266.51,299.19 441.14,299.19 388.02,425.59 204.23,424.37 			"/>
		</g>
	</g>
	<g>
		<path class="st20" d="M438.78,211.78c0,0-10.78-0.8-14.62,5.45s-7.13,18.64-7.13,18.64s0.55,3.18,3.84,4.5"/>
		<g>
			
				<linearGradient id="SVGID_00000106105902390898118490000003553923022852326552_" gradientUnits="userSpaceOnUse" x1="834.188" y1="56.8623" x2="863.2731" y2="56.8623" gradientTransform="matrix(-0.6246 0.781 -0.781 -0.6246 983.3549 -349.2504)">
				<stop  offset="0.2957" style="stop-color:#FFDE8E"/>
				<stop  offset="0.4218" style="stop-color:#FCCB86"/>
				<stop  offset="0.6768" style="stop-color:#F59B73"/>
				<stop  offset="1" style="stop-color:#EA5556"/>
			</linearGradient>
			<path style="fill:url(#SVGID_00000106105902390898118490000003553923022852326552_);" d="M396.44,271.06
				c-1.25-5.93,7.54-12.93,7.54-12.93l8.89,4.98c2.93,0.13-2.18,3.57,0.02,5.1c7.44,5.15,10.85,16.04,11.34,17.71
				c-0.99,1.21-2.82,3.02-5.09,3.48C419.15,289.41,397.7,276.99,396.44,271.06z"/>
			<path class="st22" d="M419.24,289.47l-0.09-0.06c2.27-0.46,4.09-2.28,5.09-3.48c0.04,0.14,0.06,0.22,0.06,0.22l3.69,1.93
				c0,0-8.85,13.18-11.37,11.72C414.1,298.32,419.24,289.47,419.24,289.47z"/>
		</g>
		<path class="st23" d="M448.59,249.29c0,0,7.02,18.42-5.56,22.22c-12.57,3.8-25.88,3.07-25.88,3.07s-18.01-18.26-15.79-19.59
			C409.4,250.17,448.59,249.29,448.59,249.29z"/>
		<g>
			
				<linearGradient id="SVGID_00000169544444682219947340000011298415857854593935_" gradientUnits="userSpaceOnUse" x1="828.2154" y1="41.7576" x2="859.7878" y2="41.7576" gradientTransform="matrix(-0.6246 0.781 -0.781 -0.6246 983.3549 -349.2504)">
				<stop  offset="0.2957" style="stop-color:#FFDE8E"/>
				<stop  offset="0.4218" style="stop-color:#FCCB86"/>
				<stop  offset="0.6768" style="stop-color:#F59B73"/>
				<stop  offset="1" style="stop-color:#EA5556"/>
			</linearGradient>
			<path style="fill:url(#SVGID_00000169544444682219947340000011298415857854593935_);" d="M410.13,276.2
				c-1.36-6.44,8.19-14.04,8.19-14.04l9.65,5.41c3.18,0.15-2.37,3.88,0.02,5.53c8.08,5.59,11.78,17.41,12.31,19.23
				c-1.08,1.31-3.06,3.28-5.52,3.78C434.78,296.11,411.49,282.63,410.13,276.2z"/>
			<path class="st22" d="M434.88,296.18l-0.1-0.07c2.46-0.5,4.44-2.47,5.52-3.78c0.05,0.15,0.07,0.24,0.07,0.24l4.01,2.09
				c0,0-9.61,14.31-12.34,12.72C429.3,305.79,434.88,296.18,434.88,296.18z"/>
		</g>
		<path class="st20" d="M440.69,209.52c11.13,9.06,13.01,1.24,13.01,1.24l10.79,9.31l-4.39,17.04l2.58,18.38
			c-28.37,0.64-40.21-2.4-40.21-2.4c-0.32-10.96,5.07-27.26,4.1-31.13C426.29,220.81,436.55,211.64,440.69,209.52z"/>
		<g>
			
				<linearGradient id="SVGID_00000031193033731803286500000000601466927991687052_" gradientUnits="userSpaceOnUse" x1="-1150.3473" y1="30.561" x2="-1102.1509" y2="30.561" gradientTransform="matrix(-0.7698 0.6382 -0.6382 -0.7698 -409.4358 947.1451)">
				<stop  offset="0.2957" style="stop-color:#FFDE8E"/>
				<stop  offset="0.4218" style="stop-color:#FCCB86"/>
				<stop  offset="0.6768" style="stop-color:#F59B73"/>
				<stop  offset="1" style="stop-color:#EA5556"/>
			</linearGradient>
			<path style="fill:url(#SVGID_00000031193033731803286500000000601466927991687052_);" d="M428.57,189.58
				c0,0-5.36,26.58,13.64,21.76c0,0,0.49,5.23,2.34,6.14c8.04,3.95,9.65-6.2,9.65-6.2l-0.81-3.59c0,0,10.68-12.11,2.82-18.41
				C448.36,182.98,447.04,172.76,428.57,189.58z"/>
			<path class="st26" d="M448.74,205.27c0,0,1.28-7.09-0.72-7.69s-11.52,2.01-18.53-4.62c-7.01-6.63-2.82-11.49-0.22-13.72
				c16.11-13.84,30.28,3.76,31.51,3.87s4.84,4.77,4.45,8.86c-0.15,1.55-3.94,8.78-6.1,11.49c-3.52,4.42-6.03,4.39-6.03,4.39
				s6.53-6.71,1.74-6.13S448.74,205.27,448.74,205.27z"/>
			<g>
				<path class="st26" d="M432.3,199.13c-0.12,0.46-0.58,0.74-1.04,0.62c-0.46-0.12-0.74-0.59-0.62-1.05s0.58-0.74,1.05-0.62
					C432.14,198.2,432.42,198.67,432.3,199.13z"/>
				<path class="st26" d="M438.89,200.4c-0.12,0.46-0.59,0.74-1.04,0.62c-0.46-0.12-0.74-0.59-0.62-1.05s0.58-0.74,1.05-0.62
					C438.72,199.47,439,199.94,438.89,200.4z"/>
			</g>
		</g>
		<path class="st27" d="M462.04,253.97c0,0,7.02,18.42-5.56,22.22c-12.57,3.8-25.88,3.07-25.88,3.07s-18.01-18.26-15.79-19.59
			C422.85,254.85,462.04,253.97,462.04,253.97z"/>
		<path class="st28" d="M419.05,234.45c0,0-9.65-7.53-10.09-7.82c-0.44-0.29-2.34,0.44-2.34,0.44l11.84,20.18
			c0,0,3.07,1.02,7.02,4.68"/>
		<polyline class="st6" points="407.94,227.65 412.76,223.71 419.49,232.48 438.06,228.53 442.59,242.13 443.18,248.86 		"/>
		<polyline class="st28" points="437.91,232.26 419.05,234.45 416.86,237.74 426.29,252.88 429.58,250.46 444.27,250.35 		"/>
		<g>
			<path class="st20" d="M473.17,238.75c0.53-7.27-2.46-15.17-9.67-19.58c-10.38-6.34-3.2,12.23-3.21,17.37
				C465,235.98,470.14,237.57,473.17,238.75z"/>
			
				<linearGradient id="SVGID_00000052076891829530130070000006608401036247117743_" gradientUnits="userSpaceOnUse" x1="437.224" y1="555.4495" x2="473.2375" y2="555.4495" gradientTransform="matrix(1 0 0 -1 0 800)">
				<stop  offset="0.2957" style="stop-color:#FFDE8E"/>
				<stop  offset="0.4218" style="stop-color:#FCCB86"/>
				<stop  offset="0.6768" style="stop-color:#F59B73"/>
				<stop  offset="1" style="stop-color:#EA5556"/>
			</linearGradient>
			<path style="fill:url(#SVGID_00000052076891829530130070000006608401036247117743_);" d="M460.29,236.55c0,0.07,0,0.14,0,0.21
				c-0.19,4.25-4.56,7.05-14.74,3.54c-1.38-0.48-2.75-2.22-4.45-1.78s0.75,1.11-0.13,2.01c-0.14,0.14-3.13,0.41-3.27,0.57
				c-1.41,1.66,0.44,4.05,3.87,6.45c5.85,4.09,23.46,8.91,28.72,0.43c1.66-2.67,2.64-5.88,2.88-9.21
				C470.14,237.57,465,235.98,460.29,236.55z"/>
		</g>
	</g>
	<g>
		<g>
			<polygon class="st30" points="691.23,207.79 689.65,219.85 701.23,217.68 695.35,207.01 			"/>
			<g>
				<polygon class="st31" points="689.65,219.85 682.61,273.84 682.67,273.83 682.67,273.76 702.92,269.93 695.81,218.7 				"/>
				<polygon class="st31" points="702.92,269.93 727.31,265.31 727.33,265.38 727.52,265.33 701.23,217.68 695.81,218.7 				"/>
				
					<linearGradient id="SVGID_00000015321802934830147240000008113361901196440999_" gradientUnits="userSpaceOnUse" x1="1985.3209" y1="2845.0823" x2="2037.5935" y2="2845.0823" gradientTransform="matrix(-0.0313 -0.9996 -0.9996 0.0313 3618.6145 2165.1047)">
					<stop  offset="0" style="stop-color:#FFFFFF"/>
					<stop  offset="1" style="stop-color:#352405"/>
				</linearGradient>
				
					<polygon style="opacity:0.3;fill:url(#SVGID_00000015321802934830147240000008113361901196440999_);enable-background:new    ;" points="
					702.92,269.93 727.31,265.31 727.33,265.38 727.52,265.33 701.23,217.68 695.81,218.7 				"/>
			</g>
			<g>
				<path class="st33" d="M740.4,575.91l-0.39-2.03c0.06,0.79,0.17,1.57,0.32,2.36c2.31,12.19,14.01,20.21,26.2,18.01l-4.22-22.49
					L740.4,575.91z"/>
				<path class="st33" d="M762.3,571.76l4.22,22.49c0.05-0.02,0.12-0.02,0.18-0.03c12.25-2.32,20.3-14.13,17.98-26.37
					c-0.3-1.6-0.78-3.14-1.38-4.58l0.82,4.36L762.3,571.76z"/>
				
					<linearGradient id="SVGID_00000072260811946194661720000009866966891450746498_" gradientUnits="userSpaceOnUse" x1="1659.1986" y1="2793.4128" x2="1689.6356" y2="2793.4128" gradientTransform="matrix(-0.0313 -0.9996 -0.9996 0.0313 3618.6145 2165.1047)">
					<stop  offset="0" style="stop-color:#FFFFFF"/>
					<stop  offset="1" style="stop-color:#000000"/>
				</linearGradient>
				
					<path style="opacity:0.3;fill:url(#SVGID_00000072260811946194661720000009866966891450746498_);enable-background:new    ;" d="
					M762.3,571.76l4.22,22.49c0.05-0.02,0.12-0.02,0.18-0.03c12.25-2.32,20.3-14.13,17.98-26.37c-0.3-1.6-0.78-3.14-1.38-4.58
					l0.82,4.36L762.3,571.76z"/>
			</g>
			<polygon class="st35" points="682.67,273.76 682.67,273.83 703.3,270.59 703.31,270.71 705.2,270.29 707.12,269.98 
				707.09,269.87 727.33,265.38 727.31,265.31 			"/>
			<g>
				<polygon class="st6" points="733.28,541.04 739.54,574.09 739.94,576.16 784.59,567.71 783.74,563.25 777.81,531.94 				"/>
				<g>
					<polygon class="st23" points="682.67,273.83 733.28,541.04 748.45,537.94 698.59,270.82 					"/>
					<polygon class="st35" points="763.72,534.82 777.81,531.94 727.33,265.38 713.69,267.96 					"/>
					<polyline class="st35" points="698.59,270.82 748.45,537.94 763.72,534.82 713.69,267.96 					"/>
				</g>
			</g>
		</g>
		<g>
			<polygon class="st30" points="734.98,595.19 735.05,583.03 723.82,586.62 730.98,596.48 			"/>
			<g>
				<polygon class="st31" points="735.05,583.03 735.35,528.59 735.3,528.6 735.31,528.67 715.68,534.98 729.08,584.93 				"/>
				<polygon class="st31" points="715.68,534.98 692.05,542.58 692.03,542.51 691.84,542.58 723.82,586.62 729.08,584.93 				"/>
				
					<linearGradient id="SVGID_00000142887445142364938240000006345062460908356529_" gradientUnits="userSpaceOnUse" x1="1029.8546" y1="-264.2638" x2="1082.1302" y2="-264.2638" gradientTransform="matrix(0.1547 0.988 0.988 -0.1547 807.9614 -521.9116)">
					<stop  offset="0" style="stop-color:#FFFFFF"/>
					<stop  offset="1" style="stop-color:#000000"/>
				</linearGradient>
				
					<polygon style="opacity:0.3;fill:url(#SVGID_00000142887445142364938240000006345062460908356529_);enable-background:new    ;" points="
					715.68,534.98 692.05,542.58 692.03,542.51 691.84,542.58 723.82,586.62 729.08,584.93 				"/>
			</g>
			<g>
				<path class="st33" d="M640.67,235.98l0.63,1.97c-0.15-0.77-0.35-1.54-0.6-2.31c-3.8-11.81-16.4-18.32-28.22-14.63l6.97,21.8
					L640.67,235.98z"/>
				<path class="st33" d="M619.45,242.8l-6.97-21.8c-0.05,0.03-0.12,0.04-0.17,0.05c-11.88,3.82-18.4,16.53-14.58,28.39
					c0.5,1.55,1.16,3.01,1.93,4.37l-1.35-4.22L619.45,242.8z"/>
				
					<linearGradient id="SVGID_00000101062768445372970570000003466232322822618284_" gradientUnits="userSpaceOnUse" x1="703.7021" y1="-315.9084" x2="734.1329" y2="-315.9084" gradientTransform="matrix(0.1547 0.988 0.988 -0.1547 807.9614 -521.9116)">
					<stop  offset="0" style="stop-color:#FFFFFF"/>
					<stop  offset="1" style="stop-color:#000000"/>
				</linearGradient>
				
					<path style="opacity:0.3;fill:url(#SVGID_00000101062768445372970570000003466232322822618284_);enable-background:new    ;" d="
					M619.45,242.8l-6.97-21.8c-0.05,0.03-0.12,0.04-0.17,0.05c-11.88,3.82-18.4,16.53-14.58,28.39c0.5,1.55,1.16,3.01,1.93,4.37
					l-1.35-4.22L619.45,242.8z"/>
			</g>
			<polygon class="st35" points="735.31,528.67 735.3,528.6 715.24,534.37 715.2,534.25 713.39,534.9 711.52,535.44 711.56,535.55 
				692.03,542.51 692.05,542.58 			"/>
			<g>
				<polygon class="st6" points="652.04,269.7 641.74,237.68 641.08,235.67 597.83,249.58 599.22,253.9 608.98,284.23 				"/>
				<g>
					<polygon class="st38" points="735.3,528.6 652.04,269.7 637.37,274.65 719.87,533.56 					"/>
					<polygon class="st15" points="622.6,279.64 608.98,284.23 692.03,542.51 705.25,538.26 					"/>
					<polyline class="st14" points="719.87,533.56 637.37,274.65 622.6,279.64 705.25,538.26 					"/>
				</g>
			</g>
		</g>
		<path class="st7" d="M791.91,397.85H569.34v65.51v16.59V587.2c0,31.06,25.19,56.24,56.25,56.24h109.65
			c31.06,0,56.24-25.18,56.24-56.24V479.96h0.43L791.91,397.85L791.91,397.85z"/>
		<path class="st11" d="M777.29,398.29v70.26h-0.43V575.8c0,31.06-25.18,56.24-56.24,56.24H610.96c-10.14,0-19.65-2.68-27.86-7.38
			c10.31,11.78,25.46,19.22,42.34,19.22h109.65c31.06,0,56.24-25.18,56.24-56.24V480.4h0.43v-82.1L777.29,398.29L777.29,398.29z"/>
	</g>
	<g>
		<g>
			
				<linearGradient id="SVGID_00000028293490832914256200000005848452732280358308_" gradientUnits="userSpaceOnUse" x1="-837.0589" y1="-418.4162" x2="-771.444" y2="-418.4162" gradientTransform="matrix(-0.7747 -0.6324 0.6324 -0.7747 298.1608 -181.5831)">
				<stop  offset="0.1613" style="stop-color:#FFDE8E"/>
				<stop  offset="0.3115" style="stop-color:#FCCB86"/>
				<stop  offset="0.6151" style="stop-color:#F59B73"/>
				<stop  offset="1" style="stop-color:#EA5556"/>
			</linearGradient>
			<path style="fill:url(#SVGID_00000028293490832914256200000005848452732280358308_);" d="M649.62,663.42
				c1.35-0.64,2.6-1.38,3.71-2.1l-1.21-0.94l0.95-35.55l-18.15,1.04l4.95,34.35l-0.09,0.67
				C642.55,662.68,646.76,664.78,649.62,663.42z"/>
			<path class="st6" d="M667.6,672.37l-14.27-11.06c-1.1,0.72-2.35,1.46-3.71,2.1c-2.86,1.36-7.07-0.74-9.85-2.53l-1.55,14.59
				l24.34,3.95c0,0,13.48-0.17,14.18-1.04s1.08-3.09,1.08-3.09L667.6,672.37z"/>
		</g>
		<path class="st26" d="M543.08,594.78c0,0,1.42,9.54-2.09,12.22c-3.5,2.68-6.56-13.86-6.56-13.86"/>
		<g>
			
				<linearGradient id="SVGID_00000124161617518521396970000008402603617249580206_" gradientUnits="userSpaceOnUse" x1="-456.4265" y1="2511.1365" x2="-404.7998" y2="2511.1365" gradientTransform="matrix(0.6711 -0.7414 -0.7414 -0.6711 2837.0208 1870.5067)">
				<stop  offset="0.1613" style="stop-color:#FFDE8E"/>
				<stop  offset="0.3115" style="stop-color:#FCCB86"/>
				<stop  offset="0.6151" style="stop-color:#F59B73"/>
				<stop  offset="1" style="stop-color:#EA5556"/>
			</linearGradient>
			<path style="fill:url(#SVGID_00000124161617518521396970000008402603617249580206_);" d="M675.79,516.68l10.18,11.44l8.34-4.21
				l1.83-8.97l-9.34-8.31l-6.22,1.19c0,0-6.79-3.55-14.57-9.13l-6.55,9.28C668.26,512.82,675.79,516.68,675.79,516.68z"/>
			<path class="st28" d="M624.23,435.71c0.41,18.5,4.72,50.49,8.63,55.18c3.05,3.65,15.78,11.12,26.6,17.08l6.55-9.28
				c-7.84-5.62-16.68-13.29-20.63-21.48c-7.87-16.31-4.28-34.47-6.89-39.54C635.88,432.6,624.06,428.08,624.23,435.71z"/>
		</g>
		<polyline class="st28" points="624.4,537.17 659.28,523.31 627.23,429.4 618.73,427.46 613.82,426.71 		"/>
		<polyline class="st26" points="640.35,509.18 660.28,584.08 665.34,641.85 633.66,645.56 629.44,593.15 609.55,537.14 
			585.6,512.11 		"/>
		<g>
			
				<linearGradient id="SVGID_00000074410681517680248950000000710315854625300145_" gradientUnits="userSpaceOnUse" x1="-2569.9121" y1="71.9496" x2="-2504.2927" y2="71.9496" gradientTransform="matrix(-0.2278 -0.9737 0.9737 -0.2278 -52.7664 -1798.189)">
				<stop  offset="0.1613" style="stop-color:#FFDE8E"/>
				<stop  offset="0.3115" style="stop-color:#FCCB86"/>
				<stop  offset="0.6151" style="stop-color:#F59B73"/>
				<stop  offset="1" style="stop-color:#EA5556"/>
			</linearGradient>
			<path style="fill:url(#SVGID_00000074410681517680248950000000710315854625300145_);" d="M580.31,659.47
				c1.33,0.32,3.52,0.52,5.97,0.66l22.27-27.38l-15.02-10.25l-17.04,30.23l-0.54,0.53C576.83,656.16,578.2,658.97,580.31,659.47z"/>
			<path class="st6" d="M580.31,659.47c-2.11-0.5-3.49-3.31-4.35-6.21l-9.46,9.5l16.26,19.05c0,0,10.78,8.09,11.87,7.83
				s2.74-1.79,2.74-1.79l-6.31-8.56l-4.95-18.95l0.17-0.21C583.84,659.99,581.64,659.79,580.31,659.47z"/>
		</g>
		<path class="st20" d="M632.67,489.17c0,0-40.3-1.26-44.65,18.81c-4.35,20.07,12.83,73.02,12.83,73.02l-23.05,50.74l30.07,15.87
			L634.6,595l1.02-75"/>
		<g>
			<path class="st26" d="M639.25,416.67l-9.19-30.66c0,0-5.41-7.9-16.47-5.86S601,389.5,601,389.5s-13.55,25.53-3.08,32.11
				c0,0,14.93-3.51,20.82,1.97"/>
			
				<linearGradient id="SVGID_00000145033738049785997350000011728839352251203983_" gradientUnits="userSpaceOnUse" x1="1199.9709" y1="294.9916" x2="1214.6909" y2="294.9916" gradientTransform="matrix(-0.999 -0.0446 0.0446 -0.999 1808.6909 774.1124)">
				<stop  offset="0" style="stop-color:#FFDE8E"/>
				<stop  offset="0.1791" style="stop-color:#FCCB86"/>
				<stop  offset="0.5411" style="stop-color:#F59B73"/>
				<stop  offset="1" style="stop-color:#EA5556"/>
			</linearGradient>
			<polyline style="fill:url(#SVGID_00000145033738049785997350000011728839352251203983_);" points="614.27,409.95 608.1,431.32 
				621.04,441.36 622.66,435.23 622.64,421.01 			"/>
			
				<linearGradient id="SVGID_00000041267314441661503360000010330044573941895841_" gradientUnits="userSpaceOnUse" x1="-4264.6768" y1="291.1836" x2="-4261.9126" y2="344.5491" gradientTransform="matrix(-0.999 -0.0446 0.0446 -0.999 -3658.0042 530.1789)">
				<stop  offset="0.1613" style="stop-color:#FFDE8E"/>
				<stop  offset="0.3115" style="stop-color:#FCCB86"/>
				<stop  offset="0.6151" style="stop-color:#F59B73"/>
				<stop  offset="1" style="stop-color:#EA5556"/>
			</linearGradient>
			<path style="fill:url(#SVGID_00000041267314441661503360000010330044573941895841_);" d="M603.07,399.24l0.18,0.75l8.65,0.35
				l3.34-8.64l0.56,8.8l8.58,0.35l-0.04,0.9c0.02,0,0.05,0,0.07,0c2.44,0.11,4.31,2.78,4.16,5.95c-0.14,3.18-2.24,5.67-4.68,5.56
				c-0.14-0.01-0.28-0.02-0.42-0.05c-1.12,6.19-12.63,10.63-15.19,9.82C598.25,419.88,603.07,399.24,603.07,399.24z"/>
			<path class="st26" d="M611.98,403.76c-0.02,0.53,0.38,0.97,0.91,1c0.53,0.02,0.97-0.39,1-0.91c0.02-0.53-0.39-0.97-0.91-1
				C612.45,402.83,612,403.24,611.98,403.76z"/>
			<path class="st26" d="M604.57,403.01c-0.02,0.53,0.39,0.97,0.91,1c0.53,0.02,0.98-0.39,1-0.91c0.02-0.53-0.39-0.97-0.91-1
				C605.04,402.07,604.59,402.48,604.57,403.01z"/>
			<path class="st6" d="M605.68,412.17l8.15,0.36c0,0-1.45,4.86-6.13,4.42"/>
			<path class="st26" d="M621.67,392.81c0,0-0.74,28.26-3.97,33.46l4.05-0.21c0,0,5.45-16.97,5.33-28.84"/>
			
				<linearGradient id="SVGID_00000065786191448037835340000014619949206083739274_" gradientUnits="userSpaceOnUse" x1="-2215.5107" y1="306.1274" x2="-2215.5107" y2="312.6439" gradientTransform="matrix(0.999 0.0446 0.0446 -0.999 2815.4617 819.393)">
				<stop  offset="0" style="stop-color:#FFDE8E;stop-opacity:0"/>
				<stop  offset="0.1791" style="stop-color:#FCCB86;stop-opacity:0.1791"/>
				<stop  offset="0.5411" style="stop-color:#F59B73;stop-opacity:0.5411"/>
				<stop  offset="1" style="stop-color:#EA5556"/>
			</linearGradient>
			<path style="fill:url(#SVGID_00000065786191448037835340000014619949206083739274_);" d="M619.22,411.65
				c-0.08,1.8-1.6,3.19-3.4,3.11c-1.8-0.08-3.19-1.6-3.11-3.4s1.6-3.19,3.4-3.11C617.91,408.33,619.3,409.85,619.22,411.65z"/>
			
				<linearGradient id="SVGID_00000062165321574955237870000000704115353899011999_" gradientUnits="userSpaceOnUse" x1="-2227.8359" y1="307.2589" x2="-2227.8359" y2="311.8633" gradientTransform="matrix(0.999 0.0446 0.0446 -0.999 2815.4617 819.393)">
				<stop  offset="0" style="stop-color:#FFDE8E;stop-opacity:0"/>
				<stop  offset="0.1791" style="stop-color:#FCCB86;stop-opacity:0.1791"/>
				<stop  offset="0.5411" style="stop-color:#F59B73;stop-opacity:0.5411"/>
				<stop  offset="1" style="stop-color:#EA5556"/>
			</linearGradient>
			<path style="fill:url(#SVGID_00000062165321574955237870000000704115353899011999_);" d="M605.96,410.88
				c-0.06,1.27-1.13,2.25-2.4,2.2c-1.27-0.06-2.25-1.13-2.2-2.4c0.06-1.27,1.13-2.25,2.4-2.2
				C605.03,408.54,606.01,409.61,605.96,410.88z"/>
		</g>
		<path class="st6" d="M641.84,463.38c-9.24,10.14-1.49,45.61-1.49,45.61s-38.7,21.14-56.2,0.51c-7.01-8.26,22.52-82.17,22.52-82.17
			c0.57,0.02,5.51,4.81,14.44,8.77c3.37,1.49-0.31-7.39,3.73-3.43C624.85,432.68,647.94,456.69,641.84,463.38z"/>
		
			<linearGradient id="SVGID_00000125592654757082252610000012799957101442565515_" gradientUnits="userSpaceOnUse" x1="638.7831" y1="335.8212" x2="614.8824" y2="294.4368" gradientTransform="matrix(1 0 0 -1 0 800)">
			<stop  offset="0" style="stop-color:#D0D2D3"/>
			<stop  offset="0.4495" style="stop-color:#E3E4E4;stop-opacity:0.5505"/>
			<stop  offset="1" style="stop-color:#FFFFFF;stop-opacity:0"/>
		</linearGradient>
		<path style="fill:url(#SVGID_00000125592654757082252610000012799957101442565515_);" d="M614.78,470.09l18.56-2.01
			c0,0-8.35,27.73,0,36.07c8.35,8.35-25.34,5.66-25.34,5.66"/>
		<g>
			
				<linearGradient id="SVGID_00000142142433242816799800000013098552916397312693_" gradientUnits="userSpaceOnUse" x1="1081.8892" y1="-210.7357" x2="1106.188" y2="-210.7357" gradientTransform="matrix(0.9688 0.2479 0.2479 -0.9688 -496.7709 191.5255)">
				<stop  offset="0.2957" style="stop-color:#FFDE8E"/>
				<stop  offset="0.4218" style="stop-color:#FCCB86"/>
				<stop  offset="0.6768" style="stop-color:#F59B73"/>
				<stop  offset="1" style="stop-color:#EA5556"/>
			</linearGradient>
			<path style="fill:url(#SVGID_00000142142433242816799800000013098552916397312693_);" d="M517.92,652.91l-12.27-2.49
				c-10.76,8.9-4.04,27.82-3.18,30.11c1.65,0.4,4.41,0.78,6.69-0.3L517.92,652.91z"/>
			<path class="st22" d="M509.13,680.35l0.04-0.12c-2.27,1.08-5.04,0.7-6.69,0.3c0.06,0.15,0.09,0.23,0.09,0.23l-1.94,4.08
				c0,0,16.28,5.64,17.51,2.73C519.36,684.67,509.13,680.35,509.13,680.35z"/>
			
				<linearGradient id="SVGID_00000036934625588882930870000004197252096796220326_" gradientUnits="userSpaceOnUse" x1="521.3871" y1="134.29" x2="545.6876" y2="134.29" gradientTransform="matrix(1 0 0 -1 0 800)">
				<stop  offset="0.2957" style="stop-color:#FFDE8E"/>
				<stop  offset="0.4218" style="stop-color:#FCCB86"/>
				<stop  offset="0.6768" style="stop-color:#F59B73"/>
				<stop  offset="1" style="stop-color:#EA5556"/>
			</linearGradient>
			<path style="fill:url(#SVGID_00000036934625588882930870000004197252096796220326_);" d="M536.87,650.42l-12.5,0.62
				c-8.21,11.29,2.98,27.95,4.39,29.96c1.7-0.02,4.47-0.34,6.4-1.95L536.87,650.42z"/>
			<path class="st6" d="M518.59,563.18c0,0-28.91,11.44-29.54,13.63c-0.62,2.19,3.75,41.57,7.5,47.51s29.97-2.88,29.97-2.88"/>
			<path class="st22" d="M538.12,612.6c0,0,4.38,40.16,3.75,40.16s-24.69-0.63-24.69-0.63s1.88-27.04,0-29.38"/>
			<path class="st20" d="M528.28,607.06c-0.75,1.18-5.57,48.84-5.57,48.84l-23.87-7.51c0,0,2.59-20.53,3.41-22.49"/>
			<path class="st27" d="M522.49,572.96l-18.63,12.65l4.26,16.52L497.62,641c11.38,0.26,19.35,5.35,26.79,6.17
				c10.54,1.16,18.28-1.91,18.28-1.91c0.31-10.63-3.01-54.06-2.07-57.81C540.9,586.32,522.49,572.96,522.49,572.96z"/>
			
				<linearGradient id="SVGID_00000035498840718794476780000004033117438173103003_" gradientUnits="userSpaceOnUse" x1="526.54" y1="232.96" x2="558.2044" y2="232.96" gradientTransform="matrix(1 0 0 -1 0 800)">
				<stop  offset="0.2957" style="stop-color:#FFDE8E"/>
				<stop  offset="0.4218" style="stop-color:#FCCB86"/>
				<stop  offset="0.6768" style="stop-color:#F59B73"/>
				<stop  offset="1" style="stop-color:#EA5556"/>
			</linearGradient>
			<path style="fill:url(#SVGID_00000035498840718794476780000004033117438173103003_);" d="M555.03,546.88
				c0,0-25.64,26.32-28.49,28.63c4.02,2.06,8.42,7.03,11.91,11.69c4.64-10.34,17.92-34.51,19.06-36.02
				C559.99,547.87,555.03,546.88,555.03,546.88z"/>
			
				<linearGradient id="SVGID_00000176740624374634422350000012620624110925296548_" gradientUnits="userSpaceOnUse" x1="481.19" y1="194.6756" x2="513.0898" y2="194.6756" gradientTransform="matrix(1 0 0 -1 0 800)">
				<stop  offset="0.2957" style="stop-color:#FFDE8E"/>
				<stop  offset="0.4218" style="stop-color:#FCCB86"/>
				<stop  offset="0.6768" style="stop-color:#F59B73"/>
				<stop  offset="1" style="stop-color:#EA5556"/>
			</linearGradient>
			<path style="fill:url(#SVGID_00000176740624374634422350000012620624110925296548_);" d="M504.37,585.56
				c0,0-19.86,10-23.18,34.79c0,0,0.43,8.58,4.81,2.65c3.14-4.26,7.42-9.44,16.06-16.86c3.4-2.92,9.33-3.92,10.87-10.49
				C514.47,589.07,504.37,585.56,504.37,585.56z"/>
			<path class="st6" d="M522.91,573.92c0,0,19.74,15.93,19.74,30.72l1.26-5.98l-0.8-3.37c0,0-3.11-14.94-13.94-19.73"/>
			<path class="st6" d="M502.23,621.36l1.06-4.39l-0.4-4c26.25-25,3.97-30.54,3.97-30.54l5.35-3.24c0,0,7.91,6.22,7.46,15.57
				c-0.34,7.09-5.78,16.85-17.11,27.63"/>
			<g>
				<path class="st26" d="M504.07,544.8c0,0,16.39-9.76,23.28,3.95c5.34,10.63,3.83,13.97,3.83,13.97"/>
				<g>
					
						<linearGradient id="SVGID_00000028312899416490591790000004582197295888179345_" gradientUnits="userSpaceOnUse" x1="501.2041" y1="235.0025" x2="544.4016" y2="235.0025" gradientTransform="matrix(1 0 0 -1 0 800)">
						<stop  offset="0.2957" style="stop-color:#FFDE8E"/>
						<stop  offset="0.4218" style="stop-color:#FCCB86"/>
						<stop  offset="0.6768" style="stop-color:#F59B73"/>
						<stop  offset="1" style="stop-color:#EA5556"/>
					</linearGradient>
					<path style="fill:url(#SVGID_00000028312899416490591790000004582197295888179345_);" d="M520.66,548.43
						c0,0,20.93,18.34,3.77,26.5l1.69,5.34c0,0-0.55,1.45-3.54,1.39c-3-0.06-6.95-1.72-6.95-1.72v-3.76c0,0-16.23-0.96-14.26-10.53
						C503.33,556.09,496.47,547.31,520.66,548.43z"/>
					<path class="st26" d="M519.77,544.67c0,0,3.19,12.31-3.7,18.24c-2.04,1.76-1.67,4.68-2.58,5.26c-2.18,1.4-3.54-1.63-3.54-1.63
						s-4.21-0.19-4.78,1.53c-0.57,1.72,0.96,4.4,4.59,4.59c3.64,0.19,4.78,0.96,4.78,0.96l1.05,2.52l0.03,1.47l-12.5,8.83
						c0,0-13.84-28.89-7.34-35.97C502.29,543.4,512.43,540.4,519.77,544.67z"/>
				</g>
				<g>
					<path class="st26" d="M525.85,558.45c0.23,0.41,0.76,0.56,1.17,0.33s0.56-0.76,0.33-1.17s-0.76-0.56-1.17-0.33
						C525.76,557.52,525.61,558.04,525.85,558.45z"/>
					<path class="st26" d="M519.83,561.41c0.23,0.41,0.76,0.56,1.17,0.33s0.56-0.76,0.33-1.17s-0.76-0.56-1.17-0.33
						C519.75,560.48,519.6,561,519.83,561.41z"/>
				</g>
			</g>
			<g>
				<polygon class="st27" points="488.97,629.66 473.24,623.42 467.29,624.98 467.99,641.28 481.11,647.94 488.62,644.61 				"/>
				<polygon class="st52" points="487.84,630.51 481.03,632.97 481.35,646.52 487.79,643.87 				"/>
			</g>
			<path class="st22" d="M535.15,679.17l0.01-0.12c-1.93,1.61-4.7,1.93-6.4,1.95c0.09,0.13,0.14,0.2,0.14,0.2l-0.87,4.44
				c0,0,17.17,1.43,17.64-1.69C546.14,680.82,535.15,679.17,535.15,679.17z"/>
		</g>
		
			<linearGradient id="SVGID_00000048487542366465361720000007600828718484782513_" gradientUnits="userSpaceOnUse" x1="1023.5757" y1="-8.6884" x2="1074.3053" y2="-8.6884" gradientTransform="matrix(0.9823 0.1875 0.1875 -0.9823 -457.8074 319.658)">
			<stop  offset="0.1613" style="stop-color:#FFDE8E"/>
			<stop  offset="0.3115" style="stop-color:#FCCB86"/>
			<stop  offset="0.6151" style="stop-color:#F59B73"/>
			<stop  offset="1" style="stop-color:#EA5556"/>
		</linearGradient>
		<path style="fill:url(#SVGID_00000048487542366465361720000007600828718484782513_);" d="M553.41,529.01l14.2,7.6l-3.35-8.16
			c0,0-0.5-7.64,0.22-17.19l-11.33-0.77C553.57,520.53,553.41,529.01,553.41,529.01z"/>
		<path class="st28" d="M608.45,426.71c0,0-6.39,0.36-12.82,4.47c-15.59,9.97-40.66,30.29-42.63,36.07
			c-1.53,4.5-3.59,32.53-3.06,44.87l16.77,0.22c0.72-9.62,2.22-29.12,7.16-36.74c9.84-15.2,35.01-26.21,35.01-26.21L608.45,426.71z"
			/>
		<path class="st28" d="M599.36,439.68c-19.68,24.6-22.81,93.02-22.81,93.02l43.38,4.47l-8.79-111.05
			c-0.45-0.15-9.09,1.94-9.09,1.94"/>
		
			<linearGradient id="SVGID_00000095340032574733950190000014548911438129676449_" gradientUnits="userSpaceOnUse" x1="549.0004" y1="258.2246" x2="570.28" y2="258.2246" gradientTransform="matrix(1 0 0 -1 0 800)">
			<stop  offset="0.1613" style="stop-color:#FFDE8E"/>
			<stop  offset="0.3115" style="stop-color:#FCCB86"/>
			<stop  offset="0.6151" style="stop-color:#F59B73"/>
			<stop  offset="1" style="stop-color:#EA5556"/>
		</linearGradient>
		<path style="fill:url(#SVGID_00000095340032574733950190000014548911438129676449_);" d="M563.53,531.7l4.24,4.82
			c0,0,1.35,7.13,2.51,7.42c0,0-0.39,1.73-2.02,0.58c-1.64-1.16-3.57-5.4-3.57-5.4l-1.06,5.98c0,0-1.64,9.64-1.93,10.41
			s-3.37-0.29-3.76-1.54s-2.12-1.16-3.28-2.7c-1.16-1.54-4.24-2.8-4.72-3.95c-0.48-1.16-1.16-1.93-0.87-3.18s4.6-16.36,4.6-16.36"/>
	</g>
	<g>
		<path class="st4" d="M56.45,540.28c0,0-25.73-129.12-2.3-120.39c23.43,8.73,26.65,108.44,16.08,122.68"/>
		<path class="st55" d="M53.96,545.04c0,0-4.58-52.72-29.8-49.97s11.46,45.85,17.88,49.97"/>
		<polygon class="st5" points="84.64,608.29 47.88,608.29 38.69,547.49 93.83,547.49 		"/>
		<path class="st4" d="M24.62,473.52c0,0-6.88,20.63,11.46,16.96s13.01-4.36,13.01-4.36"/>
		<path class="st56" d="M59.46,544.58c0,0-5.96-78.85-14.67-82.06s-23.38,3.67-20.17,11s24.76,71.52,24.76,71.52"/>
		<path class="st4" d="M111.59,458.03c0,0,5.97,24.81-5.51,33.08c-11.49,8.27-20.22-6.89-20.22-6.89l-1.84-27.11"/>
		<path class="st56" d="M64.27,543.04c0,0,6.43-104.76,28.95-98.33c22.51,6.43,18.38,18.84,18.38,18.84s-5.51-5.05-8.73,1.38
			s-19.76,79.95-19.76,79.95"/>
		<path class="st55" d="M74.4,543.24c0,0,9.2-52.12,34.08-47.16s-15.45,44.66-22.2,48.21"/>
		<rect x="28.27" y="540.75" class="st7" width="75.97" height="17"/>
		<path class="st57" d="M53.7,426.33c0,0,11.95,70.3,7.81,111.66"/>
		<path class="st57" d="M36.24,466.76c0,0,15.62,54.68,17,73.52"/>
		<path class="st57" d="M23.83,502.14c0,0,18.38,27.57,21.14,39.52"/>
		<path class="st57" d="M94.13,452.06c0,0-18.84,56.52-23.89,87.3"/>
		<g>
			<path class="st18" d="M79.19,542.7l-0.44-0.25c10.46-18.64,25.15-37.97,25.29-38.17l0.4,0.31
				C104.29,504.79,89.63,524.1,79.19,542.7z"/>
		</g>
	</g>
	<g>
		<path class="st58" d="M175.81,493.75c0,1.21-0.98,2.19-2.19,2.19h-20.47c-1.21,0-2.19-0.98-2.19-2.19v-40.06
			c0-1.21,0.98-2.19,2.19-2.19h20.47c1.21,0,2.19,0.98,2.19,2.19V493.75z"/>
		
			<linearGradient id="SVGID_00000163758832959271070720000018209480588677584804_" gradientUnits="userSpaceOnUse" x1="-587.963" y1="126.4547" x2="-552.7054" y2="126.4547" gradientTransform="matrix(-0.95 0.3123 -0.3123 -0.95 -253.0608 975.9763)">
			<stop  offset="0.2957" style="stop-color:#FFDE8E"/>
			<stop  offset="0.4218" style="stop-color:#FCCB86"/>
			<stop  offset="0.6768" style="stop-color:#F59B73"/>
			<stop  offset="1" style="stop-color:#EA5556"/>
		</linearGradient>
		<polyline style="fill:url(#SVGID_00000163758832959271070720000018209480588677584804_);" points="248.95,658.29 249.47,677.91 
			271.81,689.86 235.1,691.09 234.72,663.95 		"/>
		<g>
			
				<linearGradient id="SVGID_00000057854980095847564390000010358619260633999545_" gradientUnits="userSpaceOnUse" x1="76.8165" y1="350.5524" x2="97.6858" y2="350.5524" gradientTransform="matrix(0.9981 -0.061 -0.061 -0.9981 84.7735 897.639)">
				<stop  offset="0.1613" style="stop-color:#FFDE8E"/>
				<stop  offset="0.3115" style="stop-color:#FCCB86"/>
				<stop  offset="0.6151" style="stop-color:#F59B73"/>
				<stop  offset="1" style="stop-color:#EA5556"/>
			</linearGradient>
			<path style="fill:url(#SVGID_00000057854980095847564390000010358619260633999545_);" d="M153.68,532.33l4.44,4.47
				c0,0,1.75,6.9,2.9,7.12c0,0-0.27,1.72-1.95,0.69c-1.67-1.03-3.82-5.07-3.82-5.07l-0.68,5.91c0,0-1.03,9.54-1.26,10.31
				c-0.24,0.77-3.32-0.08-3.77-1.29c-0.45-1.2-2.15-1.01-3.37-2.45c-1.23-1.44-4.32-2.48-4.86-3.59c-0.54-1.1-1.25-1.82-1.04-3.06
				s3.52-16.29,3.52-16.29"/>
			<path class="st27" d="M163.33,410.56c0,0,42.99-10.97,49.57-7.02s20.62,83.34,20.62,83.34"/>
			<path class="st27" d="M187.45,501.79c0,1.21-0.98,2.19-2.19,2.19h-20.18c-1.21,0-2.19-0.98-2.19-2.19v-89.05
				c0-1.21,0.98-2.19,2.19-2.19h20.18c1.21,0,2.19,0.98,2.19,2.19L187.45,501.79L187.45,501.79z"/>
			
				<linearGradient id="SVGID_00000064333748103539032690000009994971469476257695_" gradientUnits="userSpaceOnUse" x1="-186.8206" y1="122.27" x2="-151.5606" y2="122.27" gradientTransform="matrix(-1 0 0 -1 14.8594 800)">
				<stop  offset="0.2957" style="stop-color:#FFDE8E"/>
				<stop  offset="0.4218" style="stop-color:#FCCB86"/>
				<stop  offset="0.6768" style="stop-color:#F59B73"/>
				<stop  offset="1" style="stop-color:#EA5556"/>
			</linearGradient>
			<polyline style="fill:url(#SVGID_00000064333748103539032690000009994971469476257695_);" points="189.82,659.16 184,677.8 
				201.68,696.3 166.42,686 174.53,660.1 			"/>
			<polyline class="st22" points="241.56,504.56 249.58,594.88 251.79,664.92 231.29,667.2 225.73,596.97 206.46,510.18 			"/>
			<polyline class="st20" points="233.66,512.5 224.46,524.05 212.6,598.63 192,669.3 171.18,663.45 190.13,589.58 187.95,530.29 
				189.98,498.77 			"/>
			<path class="st6" d="M220.64,410.97c10.24,0.75,16.6,7.04,19.01,10.99c11.55,18.89,9.35,69.17,4.09,86.12
				c-6.32,20.36-60.8,0.18-60.09-2.63c0.17-0.68,3.5-7.63,2.34-12.57c-3.65-15.59-9.99-47.3-0.88-69.74
				c3.8-9.36,19.12-10.35,19.12-10.35L220.64,410.97z"/>
			
				<linearGradient id="SVGID_00000078754476021923707680000009746750533635054250_" gradientUnits="userSpaceOnUse" x1="200.2952" y1="318.2834" x2="245.2457" y2="368.7736" gradientTransform="matrix(1 0 0 -1 0 800)">
				<stop  offset="0" style="stop-color:#D0D2D3"/>
				<stop  offset="0.4495" style="stop-color:#E3E4E4;stop-opacity:0.5505"/>
				<stop  offset="1" style="stop-color:#FFFFFF;stop-opacity:0"/>
			</linearGradient>
			<path style="fill:url(#SVGID_00000078754476021923707680000009746750533635054250_);" d="M220.64,410.97
				c10.24,0.75,16.6,7.04,19.01,10.99c11.55,18.89,9.35,69.17,4.09,86.12c-6.32,20.36-60.8,0.18-60.09-2.63
				c0.17-0.68,3.5-7.63,2.34-12.57c-3.65-15.59-9.99-47.3-0.88-69.74c3.8-9.36,19.12-10.35,19.12-10.35L220.64,410.97z"/>
			<g>
				<g>
					<path class="st6" d="M149.71,597.46c3.22,0,3.22-5,0-5S146.48,597.46,149.71,597.46L149.71,597.46z"/>
				</g>
			</g>
			<path class="st6" d="M201.05,429.42c5.58,14.38-24.13,50.88-32.9,60.97s-11.84,42.99-11.84,42.99l-14.04-2.19
				c0,0,4.83-37.72,11.84-55.27c7.02-17.55,32.02-54.39,32.02-54.39S197.25,419.62,201.05,429.42z"/>
			<g>
				
					<linearGradient id="SVGID_00000027575732157811795560000010515317753602511267_" gradientUnits="userSpaceOnUse" x1="-3029.9275" y1="619.2377" x2="-3012.6985" y2="612.6971" gradientTransform="matrix(-0.991 0.1338 -0.1338 -0.991 -2690.8953 1418.7415)">
					<stop  offset="0" style="stop-color:#EA5556"/>
					<stop  offset="1" style="stop-color:#FFDE8E"/>
				</linearGradient>
				<path style="fill:url(#SVGID_00000027575732157811795560000010515317753602511267_);" d="M221.52,394.11l0.8,19.41
					c0,0,2.19,10.09-6.69,7.57c-4.47-1.27-10.78-4.09-10.78-4.09l4.09-23.19"/>
				<path class="st13" d="M217.75,395.74c0,0,5.01,11.75-12.09,17.45l1.87-8.53"/>
				<path class="st26" d="M200.04,391.25c-12.09-3.09-21.98-19.17-11.98-24.55c10-5.38,35.91,4.65,35.91,4.65l-1.93,29.41l-6.4-5.11
					"/>
				
					<linearGradient id="SVGID_00000047776338459368227730000001436954209416702138_" gradientUnits="userSpaceOnUse" x1="-2893.0215" y1="842.2471" x2="-2890.4626" y2="891.6482" gradientTransform="matrix(-0.9647 0.2634 -0.2634 -0.9647 -2353.8789 1989.3417)">
					<stop  offset="0" style="stop-color:#FFFFFF"/>
					<stop  offset="0.0516" style="stop-color:#FFFEFA"/>
					<stop  offset="0.1086" style="stop-color:#FFFAED"/>
					<stop  offset="0.1681" style="stop-color:#FFF3D7"/>
					<stop  offset="0.2294" style="stop-color:#FFEAB8"/>
					<stop  offset="0.2914" style="stop-color:#FFDF91"/>
					<stop  offset="0.2957" style="stop-color:#FFDE8E"/>
					<stop  offset="0.4218" style="stop-color:#FCCB86"/>
					<stop  offset="0.6768" style="stop-color:#F59B73"/>
					<stop  offset="1" style="stop-color:#EA5556"/>
				</linearGradient>
				<path style="fill:url(#SVGID_00000047776338459368227730000001436954209416702138_);" d="M195.26,396.46
					c-0.62-4.23-1.43-7.84-1.43-7.84l-0.71-3.39c0,0,6.27,0.88,20.57-5.71c1.7-0.78,1.35,4.93,1.35,4.93
					c0.02-0.01,0.04-0.02,0.07-0.02c2.38-0.65,5,1.34,5.84,4.43c0.85,3.1-0.4,6.14-2.78,6.79c-0.14,0.04-0.28,0.07-0.42,0.09
					c1.82,9.43-9.71,15.58-12.39,15.99C202.29,412.19,196.7,406.25,195.26,396.46z"/>
				<path class="st13" d="M193.38,385.48c0,0,17.35-9.64,30.17-0.45l0.23-4.21c0,0-20.74-6.91-31.79,1.89L193.38,385.48z"/>
				<path class="st26" d="M204.36,392c0.14,0.51,0.67,0.82,1.19,0.68c0.51-0.14,0.82-0.67,0.68-1.19c-0.14-0.51-0.67-0.82-1.19-0.68
					C204.52,390.95,204.22,391.49,204.36,392z"/>
				<path class="st26" d="M197,393.57c0.14,0.51,0.67,0.82,1.18,0.68s0.82-0.67,0.68-1.18c-0.14-0.52-0.67-0.82-1.19-0.68
					C197.16,392.52,196.86,393.05,197,393.57z"/>
				<path class="st6" d="M200.11,401.71l10.17-2.78c0,0,0.14,6.56-5.79,7.87"/>
			</g>
			<path class="st27" d="M199.88,413.04c0,0,21.35,29.1,4.24,56.29c-17.11,27.2-23.25,29.83-23.25,29.83l-1.32-15.79
				c0,0,40.06-40.36,14.04-68.28"/>
			<path class="st27" d="M222.25,412.82c0,0,30.27,24.93,25.44,55.2l0.29,12.43l3.22-27.93c0,0-13.09-36.77-29.32-43.35"/>
			<g>
				<g>
					
						<linearGradient id="SVGID_00000136404060622981143250000013796514055628495021_" gradientUnits="userSpaceOnUse" x1="114.9071" y1="127.55" x2="139.2076" y2="127.55" gradientTransform="matrix(1 0 0 -1 0 800)">
						<stop  offset="0.2957" style="stop-color:#FFDE8E"/>
						<stop  offset="0.4218" style="stop-color:#FCCB86"/>
						<stop  offset="0.6768" style="stop-color:#F59B73"/>
						<stop  offset="1" style="stop-color:#EA5556"/>
					</linearGradient>
					<path style="fill:url(#SVGID_00000136404060622981143250000013796514055628495021_);" d="M130.39,657.16l-12.5,0.62
						c-8.21,11.29,2.98,27.95,4.39,29.96c1.7-0.02,4.47-0.34,6.4-1.95L130.39,657.16z"/>
					<path class="st22" d="M128.67,685.92l0.01-0.12c-1.93,1.61-4.7,1.93-6.4,1.95c0.09,0.13,0.14,0.2,0.14,0.2l-0.87,4.44
						c0,0,17.17,1.43,17.64-1.69C139.66,687.56,128.67,685.92,128.67,685.92z"/>
				</g>
				<g>
					
						<linearGradient id="SVGID_00000065064177030541682690000014664556078280122807_" gradientUnits="userSpaceOnUse" x1="2971.1509" y1="2103.5854" x2="2995.45" y2="2103.5854" gradientTransform="matrix(0.6246 0.781 0.781 -0.6246 -3419.8296 -349.2504)">
						<stop  offset="0.2957" style="stop-color:#FFDE8E"/>
						<stop  offset="0.4218" style="stop-color:#FCCB86"/>
						<stop  offset="0.6768" style="stop-color:#F59B73"/>
						<stop  offset="1" style="stop-color:#EA5556"/>
					</linearGradient>
					<path style="fill:url(#SVGID_00000065064177030541682690000014664556078280122807_);" d="M100.47,659.86l-8.3-9.37
						c-13.95,0.64-19.97,19.78-20.66,22.14c1.08,1.31,3.06,3.28,5.52,3.78L100.47,659.86z"/>
					<path class="st22" d="M76.94,676.48l0.1-0.07c-2.47-0.5-4.44-2.47-5.52-3.78c-0.05,0.16-0.07,0.24-0.07,0.24l-4.01,2.09
						c0,0,9.61,14.31,12.34,12.72C82.52,686.09,76.94,676.48,76.94,676.48z"/>
				</g>
				<path class="st67" d="M111.71,567.15c0,0-29.82,11.8-30.47,14.06c-0.64,2.26,3.87,42.88,7.74,49.01
					c3.87,6.13,30.92-2.97,30.92-2.97"/>
				<path class="st22" d="M134.38,617.6c0,0,2,41.96,1.36,41.96s-25.47-0.65-25.47-0.65s1.93-27.89,0-30.31"/>
				<path class="st20" d="M132.48,622.27c-1.29,0.65-30.92,40.18-30.92,40.18l-17.09-19.34c0,0,13.22-16.77,14.99-18.05"/>
				<path class="st68" d="M124.59,572.38c-11.13,9.06-19.81,14.31-19.81,14.31l-8.26,3.59l4.39,17.04l-2.58,18.38
					c28.37,0.64,40.21-2.4,40.21-2.4c0.32-10.96-5.07-27.26-4.1-31.13c0.29-1.15,1.8-4.72,3.83-9.23
					C134.68,578.13,128.74,574.5,124.59,572.38z"/>
				
					<linearGradient id="SVGID_00000048482965810956803580000004193714576486028166_" gradientUnits="userSpaceOnUse" x1="124.59" y1="234.04" x2="152.6668" y2="234.04" gradientTransform="matrix(1 0 0 -1 0 800)">
					<stop  offset="0.2957" style="stop-color:#FFDE8E"/>
					<stop  offset="0.4218" style="stop-color:#FCCB86"/>
					<stop  offset="0.6768" style="stop-color:#F59B73"/>
					<stop  offset="1" style="stop-color:#EA5556"/>
				</linearGradient>
				<path style="fill:url(#SVGID_00000048482965810956803580000004193714576486028166_);" d="M152.18,548.97
					c0,0-3.22,1.61-18.38,15.48c-3.16,2.89-6.27,5.55-9.21,7.94c4.14,2.12,10.08,5.75,13.68,10.56
					c4.79-10.66,12.45-26.58,13.58-28.16C153.47,552.51,152.18,548.97,152.18,548.97z"/>
				
					<linearGradient id="SVGID_00000134965604146452325350000003616570555342677150_" gradientUnits="userSpaceOnUse" x1="73.9138" y1="185.8235" x2="94.66" y2="185.8235" gradientTransform="matrix(1 0 0 -1 0 800)">
					<stop  offset="0.2957" style="stop-color:#FFDE8E"/>
					<stop  offset="0.4218" style="stop-color:#FCCB86"/>
					<stop  offset="0.6768" style="stop-color:#F59B73"/>
					<stop  offset="1" style="stop-color:#EA5556"/>
				</linearGradient>
				<path style="fill:url(#SVGID_00000134965604146452325350000003616570555342677150_);" d="M76.62,628.71
					c5.32-1.23,9.13-9.59,18.04-17.26c-1.52-4.85-4.9-9.21-7.35-11.91C79.75,607.98,68.77,630.52,76.62,628.71z"/>
				<path class="st68" d="M97.05,590.24c0,0-4.4,3.36-9.73,9.3c2.45,2.71,5.83,7.07,7.35,11.91c3.51-3.02,7.26-5.38,11.09-6.39
					L97.05,590.24z"/>
				<path class="st67" d="M116.17,578.23c0,0,20.73,16.54,20.73,31.8l0.11-9.76c0,0-3.21-15.41-14.38-20.35"/>
				<path class="st67" d="M98.33,625.7l-1.1-3.57l0.07-2.67c9.79-9.32,11.93-15.7,11.79-20.61c-0.25-8.68-9.47-11.84-9.47-11.84
					l6.45-2.15c0,0,19.56,15.42-7.52,41.21"/>
				<g>
					
						<linearGradient id="SVGID_00000106841050661467835460000004234750260136938115_" gradientUnits="userSpaceOnUse" x1="93.6703" y1="231.4126" x2="140.5828" y2="231.4126" gradientTransform="matrix(1 0 0 -1 0 800)">
						<stop  offset="0.2957" style="stop-color:#FFDE8E"/>
						<stop  offset="0.4218" style="stop-color:#FCCB86"/>
						<stop  offset="0.6768" style="stop-color:#F59B73"/>
						<stop  offset="1" style="stop-color:#EA5556"/>
					</linearGradient>
					<path style="fill:url(#SVGID_00000106841050661467835460000004234750260136938115_);" d="M115.31,551.78
						c0,0,20.02,18.57,2.32,26.99c0,0,3.42,5.22,1.66,6.3c-1.76,1.08-9.87-0.22-9.87-0.22l0.37-3.18c0,0-17.99-2.61-15.96-12.48
						C95.87,559.33,90.36,550.62,115.31,551.78z"/>
					<path class="st26" d="M109.8,576.74c0,0-5.51-4.64-4.35-6.38s10.16-5.8,11.32-15.38s-0.94-11.02-5.22-11.03
						c-27.45-0.04-23.8,21.18-24.67,22.05s-1.16,8.12,1.74,11.03c2.9,2.9,10.08,4.83,12.4,5.41c2.32,0.58,7.68-1.39,7.68-1.39
						s-9.92-0.53-5.86-3.15C106.9,575.29,109.8,576.74,109.8,576.74z"/>
					<g>
						<path class="st26" d="M118.54,561.52c0.38,0.28,0.92,0.2,1.2-0.19c0.28-0.38,0.2-0.92-0.19-1.2c-0.38-0.28-0.92-0.2-1.2,0.19
							C118.07,560.7,118.15,561.24,118.54,561.52z"/>
						<path class="st26" d="M114.28,566.7c0.38,0.28,0.92,0.2,1.2-0.19c0.28-0.38,0.2-0.92-0.19-1.2c-0.38-0.28-0.92-0.2-1.2,0.19
							C113.81,565.88,113.9,566.42,114.28,566.7z"/>
					</g>
				</g>
			</g>
		</g>
		
			<linearGradient id="SVGID_00000046303982326676882430000017972041426875856256_" gradientUnits="userSpaceOnUse" x1="245.41" y1="351.3943" x2="256.7456" y2="351.3943" gradientTransform="matrix(1 0 0 -1 0 800)">
			<stop  offset="0" style="stop-color:#EA5556"/>
			<stop  offset="1" style="stop-color:#FFDE8E"/>
		</linearGradient>
		<path style="fill:url(#SVGID_00000046303982326676882430000017972041426875856256_);" d="M245.41,438.52c0,0,9.11-0.61,9.6,1.81
			c0.6,3.02,2.59,13.55,1.32,15.3c-1.04,1.43-8.28,3.13-8.28,3.13"/>
		
			<linearGradient id="SVGID_00000071525479129959071430000001483355200450578834_" gradientUnits="userSpaceOnUse" x1="243.4395" y1="354.601" x2="250.3811" y2="354.601" gradientTransform="matrix(1 0 0 -1 0 800)">
			<stop  offset="0" style="stop-color:#EA5556"/>
			<stop  offset="1" style="stop-color:#FFDE8E"/>
		</linearGradient>
		<path style="fill:url(#SVGID_00000071525479129959071430000001483355200450578834_);" d="M245.03,444.22l2.08,7.35
			c0,0,1.64,1.86,2.85,0.6c1.21-1.26-0.55-10.03-0.77-11.24s-5.15-2.74-5.15-2.74S242.17,440.88,245.03,444.22z"/>
		<path class="st6" d="M267.27,687.18l-17.2-11.8c-1.22,0.91-2.62,1.84-4.14,2.67c-3.21,1.76-8.2-0.38-11.53-2.26l-0.82,16.94
			l28.35,2.93c0,0,15.54-1.1,16.29-2.15c0.76-1.05,1.04-3.63,1.04-3.63L267.27,687.18z"/>
		<path class="st6" d="M199.27,689.3l-14.31-15.18c-1.39,0.63-2.95,1.24-4.61,1.74c-3.51,1.04-7.94-2.11-10.79-4.66l-4.39,16.38
			l27.08,8.87c0,0,15.42,2.22,16.38,1.36s1.78-3.33,1.78-3.33L199.27,689.3z"/>
	</g>
</g>
</svg>
