<?xml version="1.0" encoding="utf-8"?>
<!-- Generator: Adobe Illustrator 26.0.0, SVG Export Plug-In . SVG Version: 6.00 Build 0)  -->
<svg version="1.1" id="Layer_1" xmlns="http://www.w3.org/2000/svg" xmlns:xlink="http://www.w3.org/1999/xlink" x="0px" y="0px"
	 viewBox="0 0 31.43 31.43" style="enable-background:new 0 0 31.43 31.43;" xml:space="preserve">
<style type="text/css">
	.st0{opacity:0.8;}
</style>
<path class="st0" d="M23.41,16.37c-0.59,0.33-1.24,0.56-1.91,0.68c-0.36,0.06-0.73,0.09-1.1,0.09c-1.07,0.02-2.12-0.25-3.05-0.77
	c-0.89-0.51-1.62-1.25-2.12-2.16c-0.53-0.96-0.8-2.05-0.78-3.14c0-0.44,0.04-0.89,0.12-1.32c0.12-0.64,0.35-1.26,0.68-1.83l0.11-0.2
	c-0.85,0.03-1.69,0.18-2.49,0.46c-0.42,0.15-0.84,0.33-1.23,0.55c-1.21,0.66-2.21,1.64-2.88,2.84c-0.71,1.26-1.07,2.69-1.04,4.13
	c-0.03,1.44,0.32,2.87,1.02,4.13c0.68,1.2,1.69,2.18,2.9,2.83c1.25,0.69,2.66,1.04,4.09,1.02c1.43,0.02,2.85-0.33,4.1-1.02
	c1.2-0.67,2.19-1.65,2.85-2.85c0.23-0.39,0.42-0.8,0.56-1.23c0.28-0.78,0.44-1.59,0.47-2.42C23.61,16.25,23.51,16.31,23.41,16.37z
	 M18.73,21c-0.92,0.52-1.96,0.78-3.01,0.77c-1.07,0.02-2.12-0.25-3.05-0.77c-0.9-0.5-1.63-1.25-2.12-2.15
	c-0.52-0.96-0.77-2.04-0.75-3.14c-0.02-1.1,0.25-2.19,0.78-3.15c0.44-0.8,1.07-1.48,1.84-1.98c0,0.16,0,0.33,0,0.51
	c-0.03,1.44,0.32,2.87,1.02,4.13c0.67,1.19,1.66,2.18,2.86,2.84c1.26,0.69,2.67,1.04,4.1,1.02c0.11,0,0.22,0,0.33,0
	C20.24,19.89,19.55,20.55,18.73,21z"/>
</svg>
