<?xml version="1.0" encoding="utf-8"?>
<!-- Generator: Adobe Illustrator 26.0.0, SVG Export Plug-In . SVG Version: 6.00 Build 0)  -->
<svg version="1.1" id="Layer_1" xmlns="http://www.w3.org/2000/svg" xmlns:xlink="http://www.w3.org/1999/xlink" x="0px" y="0px"
	 viewBox="0 0 32 32" style="enable-background:new 0 0 32 32;" xml:space="preserve">
<style type="text/css">
	.st0{opacity:0.8;}
	.st1{fill:#FFFFFF;}
</style>
<g class="st0">
	<g>
		<path class="st1" d="M18.58,14.49c-0.25-0.45-0.61-0.81-1.06-1.06c-0.9-0.5-2.13-0.5-3.03,0c-0.45,0.25-0.81,0.6-1.07,1.05
			c-0.25,0.45-0.38,0.96-0.38,1.52s0.13,1.07,0.38,1.52c0.26,0.45,0.62,0.8,1.07,1.06c0.45,0.25,0.96,0.37,1.51,0.37
			c0.56,0,1.07-0.12,1.52-0.37c0.45-0.26,0.81-0.61,1.06-1.06c0.26-0.45,0.39-0.96,0.39-1.52C18.97,15.45,18.84,14.94,18.58,14.49z
			 M15.1,17.57c-0.26-0.15-0.47-0.36-0.62-0.63c-0.15-0.28-0.23-0.59-0.23-0.94c0-0.35,0.08-0.67,0.23-0.94
			c0.15-0.27,0.36-0.47,0.62-0.62c0.27-0.15,0.57-0.23,0.9-0.23c0.34,0,0.64,0.08,0.9,0.23c0.26,0.15,0.47,0.36,0.62,0.62
			c0.15,0.27,0.23,0.59,0.23,0.94c0,0.35-0.08,0.67-0.23,0.94c-0.15,0.27-0.36,0.48-0.62,0.63C16.36,17.87,15.63,17.86,15.1,17.57z"
			/>
	</g>
	<g>
		<g>
			<path class="st1" d="M15.34,23.34v-1.99c0-0.36,0.29-0.66,0.66-0.66h0c0.36,0,0.66,0.29,0.66,0.66v1.99
				c0,0.36-0.29,0.66-0.66,0.66h0C15.64,24,15.34,23.71,15.34,23.34z"/>
		</g>
		<g>
			<path class="st1" d="M15.34,10.65V8.66C15.34,8.29,15.64,8,16,8h0c0.36,0,0.66,0.29,0.66,0.66v1.99c0,0.36-0.29,0.66-0.66,0.66h0
				C15.64,11.31,15.34,11.02,15.34,10.65z"/>
		</g>
	</g>
	<g>
		<g>
			<path class="st1" d="M8.66,15.34h1.99c0.36,0,0.66,0.29,0.66,0.66v0c0,0.36-0.29,0.66-0.66,0.66H8.66C8.29,16.66,8,16.36,8,16v0
				C8,15.64,8.29,15.34,8.66,15.34z"/>
		</g>
		<g>
			<path class="st1" d="M21.35,15.34h1.99c0.36,0,0.66,0.29,0.66,0.66v0c0,0.36-0.29,0.66-0.66,0.66h-1.99
				c-0.36,0-0.66-0.29-0.66-0.66v0C20.69,15.64,20.98,15.34,21.35,15.34z"/>
		</g>
	</g>
	<g>
		<g>
			<path class="st1" d="M9.27,21.8l1.86-1.86c0.26-0.26,0.67-0.26,0.93,0h0c0.26,0.26,0.26,0.67,0,0.93l-1.86,1.86
				c-0.26,0.26-0.67,0.26-0.93,0l0,0C9.01,22.48,9.01,22.06,9.27,21.8z"/>
		</g>
		<g>
			<path class="st1" d="M19.95,11.12l1.86-1.86c0.26-0.26,0.67-0.26,0.93,0l0,0c0.26,0.26,0.26,0.67,0,0.93l-1.86,1.86
				c-0.26,0.26-0.67,0.26-0.93,0l0,0C19.69,11.8,19.69,11.38,19.95,11.12z"/>
		</g>
	</g>
	<g>
		<g>
			<path class="st1" d="M10.2,9.27l1.86,1.86c0.26,0.26,0.26,0.67,0,0.93l0,0c-0.26,0.26-0.67,0.26-0.93,0L9.27,10.2
				c-0.26-0.26-0.26-0.67,0-0.93l0,0C9.52,9.01,9.94,9.01,10.2,9.27z"/>
		</g>
		<g>
			<path class="st1" d="M20.88,19.95l1.86,1.86c0.26,0.26,0.26,0.67,0,0.93l0,0c-0.26,0.26-0.67,0.26-0.93,0l-1.86-1.86
				c-0.26-0.26-0.26-0.67,0-0.93v0C20.2,19.69,20.62,19.69,20.88,19.95z"/>
		</g>
	</g>
</g>
</svg>
