<?xml version="1.0" encoding="utf-8"?>
<!-- Generator: Adobe Illustrator 26.0.0, SVG Export Plug-In . SVG Version: 6.00 Build 0)  -->
<svg version="1.1" id="Layer_1" xmlns="http://www.w3.org/2000/svg" xmlns:xlink="http://www.w3.org/1999/xlink" x="0px" y="0px"
	 viewBox="0 0 31.43 31.43" style="enable-background:new 0 0 31.43 31.43;" xml:space="preserve">
<style type="text/css">
	.st0{opacity:0.8;}
</style>
<g class="st0">
	<g>
		<path d="M22.01,7.56H9.42c-0.94,0-1.71,0.76-1.71,1.71v10.05c0,0.94,0.76,1.71,1.71,1.71h2.01v2.85l4.69-2.85h5.89
			c0.94,0,1.71-0.76,1.71-1.71V9.27C23.72,8.33,22.95,7.56,22.01,7.56z M22.48,19.32c0,0.26-0.21,0.47-0.47,0.47h-6.34l-1.97,1.23
			l-1.04,0.65v-1.89H9.42c-0.26,0-0.47-0.21-0.47-0.47V9.27c0-0.26,0.21-0.47,0.47-0.47h12.59c0.26,0,0.47,0.21,0.47,0.47V19.32z"/>
	</g>
	<g>
		<path d="M12.05,13.71c-0.32,0-0.58,0.26-0.58,0.58s0.26,0.58,0.58,0.58s0.58-0.26,0.58-0.58S12.37,13.71,12.05,13.71L12.05,13.71z
			"/>
	</g>
	<g>
		<path d="M15.71,13.71c-0.32,0-0.58,0.26-0.58,0.58s0.26,0.58,0.58,0.58s0.58-0.26,0.58-0.58S16.04,13.71,15.71,13.71L15.71,13.71z
			"/>
	</g>
	<g>
		<path d="M19.38,13.71c-0.32,0-0.58,0.26-0.58,0.58s0.26,0.58,0.58,0.58s0.58-0.26,0.58-0.58S19.7,13.71,19.38,13.71L19.38,13.71z"
			/>
	</g>
	<g>
		<polygon points="15.68,19.78 15.68,19.79 15.67,19.79 		"/>
	</g>
</g>
</svg>
