<?xml version="1.0" encoding="utf-8"?>
<!-- Generator: Adobe Illustrator 26.0.0, SVG Export Plug-In . SVG Version: 6.00 Build 0)  -->
<svg version="1.1" id="Layer_1" xmlns="http://www.w3.org/2000/svg" xmlns:xlink="http://www.w3.org/1999/xlink" x="0px" y="0px"
	 viewBox="0 0 31.43 31.43" style="enable-background:new 0 0 31.43 31.43;" xml:space="preserve">
<g>
	<path d="M18.12,8.6c1.03,0.57,1.88,1.41,2.46,2.44c0.6,1.07,0.91,2.29,0.89,3.52c0.02,1.23-0.29,2.45-0.89,3.52
		c-0.58,1.03-1.43,1.87-2.46,2.44c-1.08,0.59-2.29,0.89-3.52,0.87c-1.23,0.02-2.44-0.28-3.52-0.87c-1.04-0.57-1.89-1.41-2.48-2.43
		c-0.6-1.08-0.9-2.3-0.88-3.53C7.69,13.32,8,12.1,8.6,11.02C9.18,10,10.04,9.16,11.07,8.6C12.15,8,13.37,7.7,14.59,7.72
		C15.82,7.7,17.04,8,18.12,8.6z M12.01,10.03c-0.77,0.42-1.41,1.06-1.84,1.83c-0.45,0.82-0.68,1.75-0.67,2.69
		c-0.02,0.94,0.21,1.87,0.67,2.69c0.42,0.77,1.05,1.41,1.82,1.84c0.79,0.44,1.69,0.67,2.6,0.66c0.9,0.01,1.79-0.22,2.58-0.66
		c0.77-0.43,1.4-1.07,1.82-1.84c0.45-0.83,0.68-1.76,0.67-2.7c0.02-0.94-0.21-1.87-0.67-2.69c-0.42-0.77-1.05-1.4-1.81-1.83
		c-0.79-0.44-1.68-0.67-2.59-0.66c-0.91-0.01-1.81,0.22-2.6,0.66H12.01z"/>
	<path d="M22.51,23.72l-4.12-4.12l1.21-1.21l4.12,4.12L22.51,23.72z"/>
</g>
</svg>
