<svg id="Layer_1" data-name="Layer 1" xmlns="http://www.w3.org/2000/svg" xmlns:xlink="http://www.w3.org/1999/xlink" viewBox="0 0 392.84 58.44"><defs><style>.cls-1{fill:url(#linear-gradient);}.cls-2{fill:url(#linear-gradient-2);}.cls-3{fill:url(#linear-gradient-3);}.cls-4{fill:url(#linear-gradient-4);}.cls-5{fill:url(#linear-gradient-5);}.cls-6{fill:url(#linear-gradient-6);}.cls-7{fill:url(#linear-gradient-7);}.cls-8{fill:url(#linear-gradient-8);}.cls-9{fill:url(#linear-gradient-9);}.cls-10{fill:url(#linear-gradient-10);}.cls-11{fill:url(#linear-gradient-11);}</style><linearGradient id="linear-gradient" x1="-12.76" y1="39.5" x2="447.56" y2="-34.07" gradientUnits="userSpaceOnUse"><stop offset="0" stop-color="#ff0b3a"/><stop offset="1" stop-color="#ffad08"/></linearGradient><linearGradient id="linear-gradient-2" x1="-12.08" y1="43.81" x2="448.25" y2="-29.76" xlink:href="#linear-gradient"/><linearGradient id="linear-gradient-3" x1="-9.55" y1="59.64" x2="450.78" y2="-13.93" xlink:href="#linear-gradient"/><linearGradient id="linear-gradient-4" x1="-13.28" y1="36.28" x2="447.05" y2="-37.29" xlink:href="#linear-gradient"/><linearGradient id="linear-gradient-5" x1="-8.38" y1="66.92" x2="451.95" y2="-6.65" xlink:href="#linear-gradient"/><linearGradient id="linear-gradient-6" x1="-7.06" y1="75.17" x2="453.26" y2="1.6" xlink:href="#linear-gradient"/><linearGradient id="linear-gradient-7" x1="-6.14" y1="80.95" x2="454.19" y2="7.38" xlink:href="#linear-gradient"/><linearGradient id="linear-gradient-8" x1="-6.64" y1="77.81" x2="453.69" y2="4.24" xlink:href="#linear-gradient"/><linearGradient id="linear-gradient-9" x1="-4.12" y1="93.59" x2="456.21" y2="20.02" xlink:href="#linear-gradient"/><linearGradient id="linear-gradient-10" x1="-3.12" y1="99.83" x2="457.21" y2="26.26" xlink:href="#linear-gradient"/><linearGradient id="linear-gradient-11" x1="-3.89" y1="95.02" x2="456.44" y2="21.45" xlink:href="#linear-gradient"/></defs><path class="cls-1" d="M17.36,17.8V29.34H36.94V39.76H17.36V49.81H39.92V60.23H5.82V7.38h34.1V17.8Z" transform="translate(-5.82 -2.91)"/><path class="cls-2" d="M69.84,60.23,57.11,42.44V60.23H46V2.91H57.11V38.05L69.32,22.27h13.4L68.8,40.21,83,60.23Z" transform="translate(-5.82 -2.91)"/><path class="cls-3" d="M120,22.27v38h-7.37l-1.79-2.53q-4.1,3.66-10.94,3.65-7.08,0-10.95-3.94T85,45.27v-8Q85,29,88.9,25.1t10.95-4q6.84,0,10.94,3.65l1.79-2.53ZM97.83,49.63a6.28,6.28,0,0,0,4.55,1.6A6.7,6.7,0,0,0,107,49.66a5.69,5.69,0,0,0,1.75-4.46V37.31A5.7,5.7,0,0,0,107,32.84a6.74,6.74,0,0,0-4.65-1.56,6.24,6.24,0,0,0-4.55,1.6,6.2,6.2,0,0,0-1.63,4.65V45A6.24,6.24,0,0,0,97.83,49.63Z" transform="translate(-5.82 -2.91)"/><path class="cls-4" d="M136.1,13.78l-4.92,10.65h-4.76l1.64-10.65h-2.83V2.91H136.1Z" transform="translate(-5.82 -2.91)"/><path class="cls-5" d="M152.18,61.35q-7.08,0-11.46-3.61a11.47,11.47,0,0,1-4.4-9.27v-.89h11.1v.89a2.75,2.75,0,0,0,1.48,2.46,7.23,7.23,0,0,0,3.73.89,6.73,6.73,0,0,0,3.24-.67,2,2,0,0,0,1.22-1.86,2.36,2.36,0,0,0-1.49-2,12.66,12.66,0,0,0-3.76-1.23A39.05,39.05,0,0,1,147,44.82a36.94,36.94,0,0,1-4.88-1.89,9.16,9.16,0,0,1-3.76-3.39A10,10,0,0,1,136.84,34a11.58,11.58,0,0,1,4.28-9.31q4.29-3.57,11.06-3.57t11,3.54a11.16,11.16,0,0,1,4.24,9v.74h-11v-.74a2.49,2.49,0,0,0-1.23-2.16,6.35,6.35,0,0,0-6.17,0,2.22,2.22,0,0,0-1.16,1.83c0,.84.7,1.52,2.09,2A35.46,35.46,0,0,0,155,36.75a46.2,46.2,0,0,1,6,1.71,11.39,11.39,0,0,1,5.1,3.65,10,10,0,0,1,2.08,6.51A10.88,10.88,0,0,1,163.53,58,19,19,0,0,1,152.18,61.35Z" transform="translate(-5.82 -2.91)"/><path class="cls-6" d="M205.11,61.35q-7.08,0-11.47-3.61a11.46,11.46,0,0,1-4.39-9.27v-.89h11.09v.89a2.76,2.76,0,0,0,1.49,2.46,7.2,7.2,0,0,0,3.73.89,6.71,6.71,0,0,0,3.23-.67A2,2,0,0,0,210,49.29a2.37,2.37,0,0,0-1.49-2,12.66,12.66,0,0,0-3.76-1.23,38.62,38.62,0,0,1-4.87-1.23A36.41,36.41,0,0,1,195,42.93a9.1,9.1,0,0,1-3.76-3.39A10,10,0,0,1,189.77,34a11.58,11.58,0,0,1,4.28-9.31q4.29-3.57,11.06-3.57t11,3.54a11.16,11.16,0,0,1,4.24,9v.74h-11v-.74a2.49,2.49,0,0,0-1.23-2.16,6.37,6.37,0,0,0-6.18,0,2.21,2.21,0,0,0-1.15,1.83c0,.84.69,1.52,2.08,2a35.63,35.63,0,0,0,5.07,1.42,46.2,46.2,0,0,1,6,1.71,11.39,11.39,0,0,1,5.1,3.65,10,10,0,0,1,2.08,6.51A10.88,10.88,0,0,1,216.46,58,19.06,19.06,0,0,1,205.11,61.35Z" transform="translate(-5.82 -2.91)"/><path class="cls-7" d="M242.33,61.35q-8,0-12.51-4.43t-4.54-12V37.6q0-7.59,4.54-12t12.44-4.43q7.52,0,12.05,4.32t4.55,11.46v1.12H247.61V36.64a5.39,5.39,0,0,0-1.45-4,5.19,5.19,0,0,0-3.83-1.45q-5.88,0-5.88,6.48v7.14q0,6.48,5.88,6.48a5.15,5.15,0,0,0,3.83-1.45,5.38,5.38,0,0,0,1.45-4V44.45h11.25v1.12c0,4.76-1.51,8.59-4.51,11.46S247.34,61.35,242.33,61.35Z" transform="translate(-5.82 -2.91)"/><path class="cls-8" d="M285.58,21.15q6.71,0,10.5,4.17t3.79,12.88v22H288.71V38.05A6.88,6.88,0,0,0,287,33a5.71,5.71,0,0,0-4.25-1.75,6.2,6.2,0,0,0-4.28,1.63,5.7,5.7,0,0,0-1.82,4.47V60.23H265.48V2.91h11.17V23.46A17.09,17.09,0,0,1,285.58,21.15Z" transform="translate(-5.82 -2.91)"/><path class="cls-9" d="M336.13,56.92q-4.62,4.44-12.73,4.43t-12.73-4.43q-4.62-4.43-4.62-12V37.6q0-7.59,4.58-12t12.69-4.43q8.19,0,12.81,4.43t4.61,12v7.3Q340.74,52.49,336.13,56.92ZM323.32,51.3q6.26,0,6.26-6.48V37.68q0-6.48-6.18-6.48t-6.18,6.48v7.14Q317.22,51.3,323.32,51.3Z" transform="translate(-5.82 -2.91)"/><path class="cls-10" d="M376.18,56.92q-4.62,4.44-12.73,4.43t-12.73-4.43q-4.62-4.43-4.62-12V37.6q0-7.59,4.58-12c3.05-2.95,7.29-4.43,12.69-4.43s9.73,1.48,12.81,4.43,4.61,7,4.61,12v7.3Q380.79,52.49,376.18,56.92ZM363.37,51.3q6.25,0,6.26-6.48V37.68q0-6.48-6.18-6.48t-6.18,6.48v7.14Q357.27,51.3,363.37,51.3Z" transform="translate(-5.82 -2.91)"/><path class="cls-11" d="M398.66,2.91V60.23H387.49V2.91Z" transform="translate(-5.82 -2.91)"/></svg>